<?xml version="1.0" encoding="UTF-8"?>
<svg width="696px" height="474px" viewBox="0 0 696 474" version="1.1" xmlns="http://www.w3.org/2000/svg" xmlns:xlink="http://www.w3.org/1999/xlink">
    <title>fcmb copy</title>
    <g id="Website-2.0" stroke="none" stroke-width="1" fill="none" fill-rule="evenodd">
        <g id="fcmb-copy" fill-rule="nonzero">
            <polygon id="Path" fill="#FFFFFF" points="41.87 37.31 41.87 73.81 122.61 73.81 122.61 107.42 41.87 107.42 41.87 172.93 4.64 172.93 4.64 3.71 133.48 3.71 133.48 37.31"></polygon>
            <path d="M298.35,158.18 C293.607805,161.92911 288.458733,165.132604 283,167.73 C277.182775,170.463397 271.054334,172.478227 264.75,173.73 C257.425762,175.169466 249.974025,175.85969 242.51,175.79 C230.647076,175.898017 218.885873,173.594767 207.94,169.02 C197.62878,164.725322 188.26402,158.442506 180.38,150.53 C172.565771,142.592962 166.403526,133.184746 162.25,122.85 C157.861885,112.023944 155.643212,100.441316 155.72,88.76 L155.72,88.28 C155.631739,76.6268017 157.851057,65.0713912 162.25,54.28 C166.458299,43.9413095 172.613115,34.5070936 180.38,26.49 C188.282212,18.3955742 197.737942,11.9806437 208.18,7.63 C219.533694,2.9501874 231.720972,0.629773243 244,0.81 C251.255324,0.755386826 258.498961,1.40172147 265.63,2.74 C271.7185,3.90579444 277.672521,5.68831498 283.4,8.06 C288.60096,10.2554585 293.546886,13.0117642 298.15,16.28 C302.624301,19.4764602 306.82844,23.0350953 310.72,26.92 L287,54.23 C280.942559,48.6611626 274.149105,43.9504961 266.81,40.23 C259.610702,36.7721145 251.705711,35.0363715 243.72,35.16 C236.93414,35.0969713 230.214571,36.4988712 224.02,39.27 C218.087451,41.9271115 212.776878,45.7967783 208.43,50.63 C204.028277,55.5477926 200.585696,61.245858 198.28,67.43 C195.830213,73.9605454 194.59983,80.8852625 194.65,87.86 L194.65,88.34 C194.607614,95.3531292 195.837517,102.315804 198.28,108.89 C200.550242,115.094232 203.939706,120.829203 208.28,125.81 C217.23871,135.944728 230.164253,141.679274 243.69,141.52 C253.363333,141.52 261.543333,139.746667 268.23,136.2 C275.47939,132.255066 282.182708,127.380537 288.17,121.7 L311.86,145.63 C307.680718,150.149162 303.164409,154.344549 298.35,158.18 L298.35,158.18 Z" id="Path" fill="#FFFFFF"></path>
            <polygon id="Path" fill="#FFFFFF" points="474.09 172.93 474.09 62.45 426.46 134.73 425.46 134.73 378.32 63.18 378.32 172.93 341.62 172.93 341.62 3.71 381.74 3.71 426.22 75.27 470.7 3.71 510.83 3.71 510.83 172.93"></polygon>
            <path d="M690.57,146.82 C687.576832,152.640383 683.181218,157.623683 677.78,161.32 C671.700469,165.419045 664.922168,168.370994 657.78,170.03 C649.262644,172.045385 640.532095,173.019177 631.78,172.93 L551.44,172.93 L551.44,3.71 L629.87,3.71 C647.236667,3.71 660.866667,7.66 670.76,15.56 C680.653333,23.46 685.603333,34.0966667 685.61,47.47 L685.61,48 C685.678881,52.3382927 685.068154,56.6606248 683.8,60.81 C682.673038,64.3504173 681.057454,67.7162187 679,70.81 C677.041741,73.7413868 674.68591,76.3866481 672,78.67 C669.383248,80.9124878 666.525767,82.8577212 663.48,84.47 C673.26,88.1833333 680.96,93.22 686.58,99.58 C692.2,105.94 695.006667,114.746667 695,126 L695,126.48 C695.17152,133.516742 693.65234,140.491941 690.57,146.82 Z M648.86,53.75 C648.86,48.11 646.766667,43.8 642.58,40.82 C638.393333,37.84 632.35,36.35 624.45,36.35 L587.7,36.35 L587.7,72.12 L622,72.12 C630.22,72.12 636.746667,70.71 641.58,67.89 C646.413333,65.07 648.83,60.5166667 648.83,54.23 L648.86,53.75 Z M658.29,121.44 C658.467405,116.156311 656.023395,111.126068 651.76,108 C647.406667,104.7 640.406667,103.033333 630.76,103 L587.76,103 L587.76,140.23 L632,140.23 C640.22,140.23 646.666667,138.74 651.34,135.76 C656.013333,132.78 658.346667,128.146667 658.340014,121.86 L658.29,121.44 Z" id="Shape" fill="#FFFFFF"></path>
            <path d="M692.22,281.359999 L692.22,364.22 L0.939998725,364.22 L0.939998725,320.64 C0.939998725,310.221483 5.07491122,300.22892 12.4419154,292.861915 C19.8089196,285.494911 29.8014831,281.357347 40.22,281.359999 L692.22,281.359999 Z" id="Path" fill="#FAB613"></path>
            <path d="M0.939994899,391.05 L692.22,391.05 L692.22,473.910001 L40.22,473.910001 C29.7997497,473.912655 19.8056697,469.773718 12.4383777,462.40455 C5.07108565,455.035383 0.939994899,445.040249 0.939994899,434.62 L0.939994899,391.05 Z" id="Path" fill="#FAB613"></path>
        </g>
    </g>
</svg>