<?xml version="1.0" encoding="UTF-8"?>
<svg width="581px" height="588px" viewBox="0 0 581 588" version="1.1" xmlns="http://www.w3.org/2000/svg" xmlns:xlink="http://www.w3.org/1999/xlink">
    <title>Guaranty Trust Bank Logo</title>
    <g id="Website-2.0" stroke="none" stroke-width="1" fill="none" fill-rule="evenodd">
        <g id="Guaranty-Trust-Bank-Logo">
            <polygon id="Path" fill="#D94F00" points="0 0 581 0 581 588 0 588"></polygon>
            <path d="M330.56,114.02 L479.5,114.02 L479.5,263.26 L330.56,263.26 L330.56,114.02 Z M150.5,338.75 L150.5,353.35 L176.17,353.35 L176.17,430.59 L193.87,430.59 L193.87,352.76 L217.77,352.76 L217.77,338.16 L150.5,338.76 L150.5,338.75 Z M137.28,356.85 L137.28,342.25 C123.08,335.83 106.75,333.89 90.03,342.25 C62.61,354.51 61.63,415.22 89.06,427.09 C104.81,435.07 137.66,431.37 140.97,424.36 L140.97,376.3 L108.31,376.3 L108.31,388.95 L122.69,388.95 L122.69,414.25 C75.44,437.21 66.69,326.88 137.28,356.85 Z M246.56,388.17 L263.47,388.17 C277.47,388.76 281.17,415.22 262.89,415.02 L246.56,415.02 L246.56,388.17 L246.56,388.17 Z M246.56,351.01 L263.47,351.01 C277.47,353.54 272.42,374.36 262.89,374.94 L246.56,374.94 L246.56,351.01 L246.56,351.01 Z M229.06,336.81 L229.06,429.81 L275.53,429.81 C299.25,421.25 300.23,384.48 275.53,380.58 C298.28,378.06 299.45,336.22 260.17,336.22 L229.06,336.81 L229.06,336.81 Z M311.11,362.88 L311.11,376.69 C323.55,373.19 350.58,363.46 348.05,384.09 C324.33,382.53 308.19,386.81 305.47,401.59 C301,433.51 335.22,436.62 349.61,420.86 L349.61,428.45 L365.94,428.45 L365.94,372.41 C361.86,354.31 334.84,351.98 311.11,362.88 L311.11,362.88 Z M324.91,398.88 C328.61,394.01 340.47,394.2 348.44,396.54 L348.44,408.8 C335.42,422.8 314.42,416.39 324.92,398.87 L324.91,398.88 Z M399.78,379.42 C404.06,374.75 426.81,365.99 430.31,379.42 L430.31,428.84 L448.58,428.84 L448.58,376.5 C444.69,354.7 423.88,350.81 398.61,365.6 L398.61,357.43 L381.31,357.43 L381.31,429.23 L399.58,429.23 L399.78,379.42 L399.78,379.42 Z M505.94,356.65 L482.03,388.75 L507.31,428.25 L529.28,427.67 L501.48,389.73 L526.56,357.23 L505.95,356.65 L505.94,356.65 Z M462.2,333.1 L480.28,333.1 L480.28,428.25 L462.19,428.25 L462.19,333.11 L462.2,333.1 Z" id="Shape" fill="#FFFFFF"></path>
            <polygon id="Path" fill="#FFFFFF" points="330.56 114.02 479.5 114.02 479.5 263.26 330.56 263.26"></polygon>
        </g>
    </g>
</svg>