<?xml version="1.0" encoding="UTF-8"?>
<svg width="37px" height="37px" viewBox="0 0 37 37" version="1.1" xmlns="http://www.w3.org/2000/svg" xmlns:xlink="http://www.w3.org/1999/xlink">
    <title>paystack</title>
    <g id="Website-2.0" stroke="none" stroke-width="1" fill="none" fill-rule="evenodd">
        <g id="Desktop-HD" transform="translate(-268.000000, -4333.000000)" fill="#FFFFFF" fill-rule="nonzero">
            <g id="Group-42-Copy" transform="translate(120.000000, 3920.000000)">
                <g id="Group-49" transform="translate(132.000000, 399.000000)">
                    <g id="paystack" transform="translate(16.200000, 14.400000)">
                        <path d="M32.2205368,0 L1.86784358,0 C0.840506112,0 0,0.842092416 0,1.8713687 L0,5.23979712 C0,6.26907341 0.840506112,7.11116582 1.86784358,7.11116582 L32.1271212,7.11116582 C33.1544586,7.11116582 33.9949647,6.26907341 33.9949647,5.23979712 L33.9949647,1.8713687 C34.0883804,0.842092416 33.2478156,0 32.2205368,0 Z M1.86784358,18.8071615 C0.840506112,18.8071615 0,19.6492539 0,20.6785302 L0,24.0469586 C0,25.0762349 0.840506112,25.9183273 1.86784358,25.9183273 L32.1271212,25.9183273 C33.1544586,25.9183273 33.9949647,25.0762349 33.9949647,24.0469586 L33.9949647,20.6785302 C34.0883804,19.6492539 33.2478156,18.8071615 32.2205368,18.8071615 L1.86784358,18.8071615 Z M18.9587416,28.2575382 L1.86784358,28.2575382 C0.840506112,28.2575382 0,29.0996306 0,30.1289069 L0,33.4973353 C0,34.5266116 0.840506112,35.368704 1.86784358,35.368704 L18.9587416,35.368704 C19.9860791,35.368704 20.8265852,34.5266116 20.8265852,33.4973353 L20.8265852,30.1289069 C20.8265852,29.0996306 19.9860791,28.2575382 18.9587416,28.2575382 L18.9587416,28.2575382 Z M34.0883804,9.4503767 L1.86784358,9.4503767 C0.840506112,9.4503767 0,10.2924691 0,11.3216867 L0,14.6901738 C0,15.7193914 0.840506112,16.5615425 1.86784358,16.5615425 L34.0883804,16.5615425 C35.1157179,16.5615425 35.956224,15.7193914 35.956224,14.6901738 L35.956224,11.3216867 C35.956224,10.2924691 35.1157179,9.4503767 34.0883804,9.4503767 L34.0883804,9.4503767 Z" id="Shape"></path>
                    </g>
                </g>
            </g>
        </g>
    </g>
</svg>