<?xml version="1.0" encoding="UTF-8"?>
<svg width="246px" height="379px" viewBox="0 0 246 379" version="1.1" xmlns="http://www.w3.org/2000/svg" xmlns:xlink="http://www.w3.org/1999/xlink">
    <title>Group 50</title>
    <g id="Website-2.0" stroke="none" stroke-width="1" fill="none" fill-rule="evenodd">
        <g id="Group-50" transform="translate(0.080000, 0.310000)">
            <path d="M74.16,364.41 C64.27,370.3 55.3,373.81 45.89,373.81 C21.53,373.81 1.17,353.81 0,329.88 L47.47,301.6 L121.25,334.6 L74.16,364.43 L74.16,364.41 Z" id="Path" fill="#71B0D1"></path>
            <path d="M102.37,242.92 L67.13,227.39 C51.37,220.39 36.5,214.49 36.5,197.16 C36.5,188.16 39.23,183.46 43.5,178.77 L118.1,211.69 L99.61,222.36 C94.52,225.49 90.99,228.24 90.99,232.16 C90.99,236.4 95.84,240.01 102.37,242.97 L102.37,242.92 Z" id="Path" fill="#A4D0A0"></path>
            <path d="M137,80.23 L100.86,102.16 C97.65,104.1 93.36,107.22 93.36,112.04 C93.36,117.51 101.7,121.71 109.12,125.23 L63.89,105.23 C50.57,99.37 37.28,92.71 37.28,76.65 C37.2110503,70.627429 38.983471,64.7275011 42.36,59.74 L140.13,0 C151.85,6.64 163.21,20.08 163.21,38.09 C163.21,57.38 153.44,70.29 137,80.18 L137,80.23 Z" id="Path" fill="#71B0D1"></path>
            <path d="M213.92,150.87 L204.92,155.96 L130.24,122.96 L217.04,70.69 C228.75,77.45 240.24,90.76 240.24,108.76 C240.24,128.04 230.73,141.34 213.89,150.83 L213.92,150.87 Z" id="Path" fill="#A4D0A0"></path>
            <path d="M150.85,214.28 L195.02,233.69 C211.57,241.11 216.66,249.81 216.66,260.8 C216.66,267.05 213.13,273.33 208.06,277.64 L133.78,244.64 L146.35,237.64 C156.97,231.77 160.5,228.24 160.5,224.33 C160.5,220.26 158.02,217.58 150.85,214.33 L150.85,214.28 Z" id="Path" fill="#71B0D1"></path>
            <path d="M229.57,377.33 C210.78,362.86 190.73,353.07 166.36,342.01 L53.72,292.18 C25.42,279.56 6.66,262.75 6.66,234.45 C6.66,206.95 19.97,193.64 37.28,182.69 L43.53,178.77 C39.23,183.46 36.53,188.16 36.53,197.16 C36.53,214.49 51.4,220.35 67.16,227.39 L198.16,285.14 C220.95,294.93 241.81,311.77 241.81,340.44 C241.81,356.2 235.81,370.3 229.56,377.33 L229.57,377.33 Z" id="Path" fill="#22A947"></path>
            <path d="M216.27,272.52 L208.06,277.63 C213.13,273.32 216.66,267.04 216.66,260.79 C216.66,249.79 211.56,241.1 195.02,233.68 L54.92,172 C26.64,159.5 9.03,143.34 9.03,115.17 C9.03,89.23 21.94,72.29 42.39,59.79 C39.0048127,64.771232 37.2219336,70.6676422 37.28,76.69 C37.28,92.75 50.57,99.41 63.89,105.27 L200.1,165.35 C224.87,176.35 244.92,192.85 244.92,223.09 C244.92,246.68 233.92,261.55 216.27,272.51 L216.27,272.52 Z" id="Path" fill="#0072A9"></path>
        </g>
    </g>
</svg>