<?xml version="1.0" encoding="UTF-8"?>
<svg width="450px" height="154px" viewBox="0 0 450 154" version="1.1" xmlns="http://www.w3.org/2000/svg" xmlns:xlink="http://www.w3.org/1999/xlink">
    <title>wallets</title>
    <g id="Website-2.0" stroke="none" stroke-width="1" fill="none" fill-rule="evenodd">
        <g id="wallets" fill-rule="nonzero">
            <path d="M53.1462,24.0612 C52.33,24.0612 51.6005,24.5816 51.3378,25.3544 L35.8636,70.6955 C35.2617,72.4605 32.7443,72.407 32.2189,70.6165 L18.9458,25.4334 C18.706,24.6198 17.9587,24.0612 17.1094,24.0612 L1.91569,24.0612 C0.614906,24.0612 -0.305837,25.3289 0.0946002,26.5633 L23.3939,98.3741 C23.649,99.1622 24.3836,99.6979 25.2125,99.6979 L40.9316,99.6979 C41.7528,99.6979 42.4823,99.1724 42.745,98.3945 L58.8416,50.6482 C59.4256,48.9189 61.8665,48.9087 62.4634,50.6329 L78.9782,98.4098 C79.246,99.1801 79.9704,99.6979 80.7866,99.6979 L96.044,99.6979 C96.8755,99.6979 97.6126,99.1597 97.8651,98.3665 L120.869,26.5582 C121.264,25.3238 120.343,24.0612 119.047,24.0612 L104.782,24.0612 C103.93,24.0612 103.18,24.6249 102.943,25.4437 L89.9609,70.5527 C89.4432,72.3508 86.9156,72.4121 86.3111,70.642 L70.8572,25.3544 C70.5945,24.5816 69.8651,24.0612 69.0489,24.0612 L53.1462,24.0612 Z M122.505,79.1931 C122.505,91.15 132.289,102.023 148.13,102.023 C156.72,102.023 162.949,98.9802 167.139,95.1825 C168.565,93.8893 171.534,94.8432 171.736,96.7562 C171.799,97.3861 171.871,97.9141 171.934,98.3451 C172.059,99.1588 172.761,99.6944 173.582,99.6944 L186.644,99.6944 C187.942,99.6944 188.059,98.5415 188.046,97.3887 C188.021,95.1952 188.046,91.8974 188.046,87.5793 L188.046,49.9943 C188.046,34.9282 179.193,21.7266 155.897,21.7266 C138.066,21.7266 126.491,32.3879 124.298,44.7351 C124.127,45.6916 124.772,46.5842 125.718,46.7985 L138.415,49.673 C139.535,49.9255 140.614,49.1373 140.866,48.0177 C142.343,41.4398 147.482,36.4815 156.052,36.4815 C165.992,36.4815 170.34,41.6081 170.34,47.9743 C170.34,50.6141 169.098,52.7897 164.75,53.4121 L145.335,56.3605 C132.444,58.225 122.505,65.6802 122.505,79.1931 L122.505,79.1931 Z M151.548,87.8904 C144.404,87.8904 140.522,83.2306 140.522,78.1065 C140.522,71.8934 145.026,68.7868 150.617,67.8533 L168.144,65.2313 C169.302,65.0604 170.34,65.9557 170.34,67.1238 L170.34,68.32 C170.34,83.075 161.643,87.8904 151.548,87.8904 Z M218.21,99.6934 C219.266,99.6934 220.122,98.8364 220.122,97.7805 L220.122,1.91285 C220.122,0.856925 219.266,-6.104e-05 218.21,-6.104e-05 L204.018,-6.104e-05 C202.962,-6.104e-05 202.105,0.856925 202.105,1.91285 L202.105,97.7805 C202.105,98.8364 202.962,99.6934 204.018,99.6934 L218.21,99.6934 Z M251.665,99.6934 C252.721,99.6934 253.578,98.8364 253.578,97.7805 L253.578,1.91285 C253.578,0.856925 252.721,-6.104e-05 251.665,-6.104e-05 L237.473,-6.104e-05 C236.417,-6.104e-05 235.56,0.856925 235.56,1.91285 L235.56,97.7805 C235.56,98.8364 236.417,99.6934 237.473,99.6934 L251.665,99.6934 Z M282.109,58.0797 C281.032,58.3682 279.929,57.679 279.855,56.5685 C279.353,49.0085 283.592,40.3183 293.624,37.6302 C304.725,34.6557 312.19,39.6714 315.296,47.1436 C315.714,48.1432 315.1,49.2399 314.052,49.5205 L282.109,58.0797 Z M324.905,67.6232 C323.86,67.5758 322.981,68.3763 322.839,69.4126 C321.879,76.4824 317.793,82.6074 308.138,85.1945 C297.968,87.9195 287.772,83.097 283.756,73.3627 C283.341,72.3569 283.954,71.2527 285.003,70.9715 L335.343,57.483 C336.043,57.2956 336.493,56.7206 336.393,56.0003 C336.244,54.9418 335.93,53.2964 335.45,51.5053 C329.26,28.4038 312.077,17.0881 289.574,23.1177 C271.121,28.0621 258.119,47.9465 264.309,71.0505 C270.942,95.8027 292.354,105.502 312.157,100.196 C328.905,95.708 337.666,83.2581 338.851,70.1418 C338.946,69.0946 338.126,68.2131 337.078,68.164 L324.905,67.6232 L324.905,67.6232 Z M369.193,2.83284 C369.193,1.77436 368.339,0.919922 367.281,0.919922 L354.801,0.919922 C353.742,0.919922 352.888,1.77436 352.888,2.83284 L352.888,12.2571 C352.888,18.9345 349.314,24.0611 341.239,24.0611 L339.268,24.0611 C338.212,24.0611 337.355,24.9155 337.355,25.974 L337.355,38.1453 C337.355,39.2012 338.212,40.0582 339.268,40.0582 L349.422,40.0582 C350.477,40.0582 351.334,40.9126 351.334,41.9711 L351.334,78.1099 C351.334,92.2425 360.032,100.629 374.009,100.629 C378.98,100.629 382.148,99.9069 383.854,99.356 C384.584,99.1239 385.035,98.425 385.035,97.6599 L385.035,86.3431 C385.035,85.1367 383.928,84.2134 382.729,84.3613 C381.553,84.5041 380.125,84.6316 378.824,84.6316 C372.144,84.6316 369.193,81.8362 369.193,75.1589 L369.193,41.9711 C369.193,40.9126 370.05,40.0582 371.106,40.0582 L382.969,40.0582 C384.025,40.0582 384.882,39.2012 384.882,38.1453 L384.882,25.974 C384.882,24.9155 384.025,24.0611 382.969,24.0611 L371.106,24.0611 C370.05,24.0611 369.193,23.2041 369.193,22.1482 L369.193,2.83284 Z M391.771,78.7569 C390.868,79.0094 390.271,79.8792 390.455,80.7974 C392.197,89.408 400.846,102.023 421.421,102.023 C440.681,102.023 450,89.2881 450,77.7954 C450,66.6112 442.545,57.9138 428.257,54.8072 L416.764,52.4786 C412.104,51.5476 409.153,48.5966 409.153,44.5591 C409.153,39.8992 413.657,35.8617 420.024,35.8617 C428.583,35.8617 432.228,40.8838 433.521,45.0616 C433.863,46.1711 434.995,46.9133 436.112,46.597 L447.58,43.3195 C448.516,43.0517 449.11,42.1259 448.873,41.1822 C446.942,33.5305 439.653,21.7266 420.024,21.7266 C404.338,21.7266 392.222,32.9107 392.222,46.1098 C392.222,56.5161 399.214,65.2135 412.568,68.1645 L423.752,70.6513 C429.81,71.8934 432.605,74.9999 432.605,79.0375 C432.605,83.6973 428.721,87.7348 421.268,87.7348 C412.716,87.7348 407.717,82.9577 406.268,77.1016 C405.983,75.9437 404.832,75.1377 403.682,75.4565 L391.771,78.7569 L391.771,78.7569 Z" id="Shape" fill="#00C9B6"></path>
            <path d="M315.821,148.121 C315.821,150.574 317.782,152.536 320.233,152.536 C322.687,152.536 324.702,150.574 324.702,148.121 C324.702,145.67 322.687,143.655 320.233,143.655 C317.782,143.655 315.821,145.67 315.821,148.121 Z M327.852,145.013 C327.852,149.209 331.285,153.022 336.842,153.022 C339.622,153.022 341.698,152.114 343.157,150.925 C343.785,150.415 345.083,151.247 345.246,152.04 C345.318,152.379 345.522,152.206 345.866,152.206 L349.615,152.206 C350.421,152.206 351.041,151.466 350.967,150.665 C350.901,149.958 350.845,149.04 350.845,147.954 L350.845,134.77 C350.845,129.485 347.738,124.853 339.566,124.853 C333.567,124.853 329.586,128.294 328.591,132.398 C328.438,133.028 328.874,133.625 329.504,133.768 L332.769,134.507 C333.514,134.676 334.228,134.142 334.48,133.421 C335.174,131.447 336.906,130.028 339.62,130.028 C343.109,130.028 344.634,131.827 344.634,134.061 C344.634,134.987 344.198,135.749 342.673,135.969 L335.86,137.004 C331.338,137.657 327.852,140.271 327.852,145.013 L327.852,145.013 Z M338.041,148.063 C335.534,148.063 334.172,146.429 334.172,144.63 C334.172,142.452 335.753,141.363 337.715,141.034 L343.448,140.177 C344.073,140.083 344.634,140.567 344.634,141.2 C344.634,146.375 341.581,148.063 338.041,148.063 L338.041,148.063 Z M367.558,118.158 C367.78,118.158 367.986,118.165 368.178,118.176 C369.024,118.219 369.846,117.589 369.846,116.74 L369.846,113.824 C369.846,113.342 369.568,112.906 369.098,112.789 C368.466,112.631 367.553,112.493 366.522,112.493 C361.072,112.493 357.259,116.089 357.259,122.027 L357.259,124.402 C357.259,125.108 356.688,125.677 355.984,125.677 L353.902,125.677 C353.198,125.677 352.627,126.248 352.627,126.952 L352.627,129.906 C352.627,130.61 353.198,131.181 353.902,131.181 L355.984,131.181 C356.688,131.181 357.259,131.752 357.259,132.456 L357.259,150.937 C357.259,151.641 357.83,152.213 358.534,152.213 L362.357,152.213 C363.064,152.213 363.633,151.641 363.633,150.937 L363.633,132.456 C363.633,131.752 364.204,131.181 364.908,131.181 L368.514,131.181 C369.221,131.181 369.79,130.61 369.79,129.906 L369.79,126.952 C369.79,126.248 369.221,125.677 368.514,125.677 L364.908,125.677 C364.204,125.677 363.633,125.108 363.633,124.402 L363.633,122.19 C363.633,118.923 365.867,118.158 367.558,118.158 L367.558,118.158 Z M387.602,126.557 C387.602,125.95 387.171,125.419 386.566,125.373 C386.362,125.358 386.143,125.348 385.911,125.348 C383.761,125.348 381.817,125.99 380.351,127.161 C379.731,127.656 378.229,127.199 378.229,126.406 C378.229,126.003 377.902,125.674 377.499,125.674 L373.349,125.674 C372.643,125.674 372.074,126.245 372.074,126.949 L372.074,150.935 C372.074,151.639 372.643,152.21 373.349,152.21 L377.119,152.21 C377.823,152.21 378.394,151.639 378.394,150.935 L378.394,139.569 C378.394,134.611 380.626,131.778 385.531,131.778 C385.725,131.778 385.921,131.783 386.123,131.793 C386.903,131.829 387.602,131.237 387.602,130.454 L387.602,126.557 L387.602,126.557 Z M395.184,152.211 C395.888,152.211 396.46,151.64 396.46,150.936 L396.46,126.95 C396.46,126.246 395.888,125.675 395.184,125.675 L391.468,125.675 C390.764,125.675 390.193,126.246 390.193,126.95 L390.193,150.936 C390.193,151.64 390.764,152.211 391.468,152.211 L395.184,152.211 Z M389.214,116.36 C389.214,118.648 391.065,120.446 393.3,120.446 C395.587,120.446 397.439,118.648 397.439,116.36 C397.439,114.07 395.587,112.218 393.3,112.218 C391.065,112.218 389.214,114.07 389.214,116.36 Z M413.436,130.684 C416.714,130.684 418.514,132.411 419.397,134.313 C419.713,134.999 420.481,135.415 421.19,135.158 L424.447,133.967 C425.064,133.742 425.416,133.084 425.186,132.469 C423.743,128.585 419.904,124.853 413.382,124.853 C405.754,124.853 399.816,130.738 399.816,138.909 C399.816,146.974 405.754,153.022 413.546,153.022 C419.886,153.022 423.748,149.285 425.34,145.495 C425.602,144.87 425.25,144.179 424.615,143.947 L421.465,142.804 C420.774,142.554 420.022,142.942 419.685,143.595 C418.764,145.375 416.879,147.247 413.546,147.247 C409.567,147.247 406.136,144.25 406.136,138.909 C406.136,133.571 409.567,130.684 413.436,130.684 L413.436,130.684 Z M426.844,145.013 C426.844,149.209 430.277,153.022 435.835,153.022 C438.615,153.022 440.691,152.114 442.15,150.925 C442.777,150.415 444.076,151.247 444.239,152.04 C444.308,152.379 444.512,152.206 444.859,152.206 L448.608,152.206 C449.414,152.206 450.034,151.466 449.96,150.665 C449.893,149.958 449.837,149.04 449.837,147.954 L449.837,134.77 C449.837,129.485 446.731,124.853 438.559,124.853 C432.557,124.853 428.576,128.294 427.584,132.398 C427.431,133.028 427.864,133.625 428.497,133.768 L431.759,134.507 C432.506,134.676 433.221,134.142 433.473,133.421 C434.164,131.447 435.899,130.028 438.612,130.028 C442.099,130.028 443.624,131.827 443.624,134.061 C443.624,134.987 443.191,135.749 441.663,135.969 L434.853,137.004 C430.331,137.657 426.844,140.271 426.844,145.013 L426.844,145.013 Z M437.034,148.063 C434.526,148.063 433.164,146.429 433.164,144.63 C433.164,142.452 434.743,141.363 436.707,141.034 L442.441,140.177 C443.063,140.083 443.624,140.567 443.624,141.2 C443.624,146.375 440.574,148.063 437.034,148.063 Z" id="Shape" fill="#5C2799"></path>
        </g>
    </g>
</svg>