<?xml version="1.0" encoding="UTF-8"?>
<svg width="107px" height="32px" viewBox="0 0 107 32" version="1.1" xmlns="http://www.w3.org/2000/svg" xmlns:xlink="http://www.w3.org/1999/xlink">
    <title>image2vector</title>
    <g id="Website-3.0" stroke="none" stroke-width="1" fill="none" fill-rule="evenodd">
        <g id="image2vector">
            <path d="M10.143063,0.990036 C10.066167,1.241016 9.986868,1.466364 9.967377,1.490661 C9.947619,1.515225 9.847761,1.8156 9.745233,2.158161 C9.642705,2.500989 9.532434,2.822991 9.500127,2.874255 C9.46782,2.925252 9.347136,3.275556 9.232059,3.652827 C9.116982,4.030098 9.006711,4.358775 8.98722,4.383339 C8.967729,4.40817 8.857191,4.738449 8.741313,5.117589 C8.625702,5.496996 8.505552,5.8473 8.47458,5.896161 C8.443341,5.945289 8.323458,6.295593 8.208114,6.675 C8.09277,7.054407 7.984635,7.374807 7.968081,7.387089 C7.951527,7.399104 7.841523,7.72965 7.723509,8.121339 C7.605495,8.512761 7.493355,8.843307 7.474665,8.855589 C7.455708,8.867604 7.344636,9.188004 7.227957,9.567411 C7.111278,9.946818 7.002075,10.267218 6.985254,10.2795 C6.9687,10.291782 6.858963,10.622061 6.741216,11.01375 C6.623469,11.405439 6.512664,11.735718 6.494775,11.748 C6.476886,11.760282 6.369285,12.070536 6.255276,12.437661 C6.141534,12.804786 6.021651,13.155357 5.989077,13.2165 C5.95677,13.277643 5.834217,13.648239 5.717004,14.039661 C5.599791,14.43135 5.490054,14.761896 5.472966,14.773911 C5.437989,14.799276 5.028411,16.061652 5.028411,16.144422 C5.028411,16.173792 5.012391,16.198089 4.992366,16.198089 C4.972608,16.198089 4.858332,16.523295 4.738716,16.921125 C4.618833,17.318955 4.508028,17.654307 4.492275,17.666589 C4.476789,17.678604 4.36812,17.989125 4.250907,18.35625 C4.133961,18.723375 4.022622,19.043775 4.003665,19.068339 C3.984975,19.092636 3.86349,19.463232 3.733728,19.8915 C3.603966,20.319768 3.485151,20.680218 3.469131,20.6925 C3.435756,20.718132 3.025911,21.980775 3.025911,22.057671 C3.025911,22.085973 3.007755,22.115877 2.985861,22.123887 C2.9637,22.132164 2.85156,22.449093 2.73675,22.8285 C2.621673,23.207907 2.512203,23.538186 2.493246,23.56275 C2.474556,23.587314 2.363484,23.907714 2.246805,24.274839 C2.130126,24.641964 2.019054,24.962364 1.99983,24.986928 C1.980873,25.011492 1.871136,25.342038 1.755792,25.721178 C1.640715,26.100585 1.531512,26.430864 1.513089,26.455161 C1.494666,26.479725 1.374516,26.830029 1.246089,27.234 C1.117662,27.637971 0.996711,27.988275 0.97722,28.012839 C0.957729,28.03767 0.847191,28.367949 0.731847,28.747089 C0.616503,29.126496 0.504897,29.443425 0.483537,29.451702 C0.462444,29.459712 0.445089,29.489883 0.444822,29.518452 C0.444822,29.546754 0.344697,29.880504 0.222411,30.259911 C0.100125,30.639318 0,30.964791 0,30.983214 C0,31.00137 1.697052,31.015788 3.771375,31.014987 L7.54275,31.013118 L7.655157,30.772017 C7.768098,30.529581 7.89519,30.366177 8.388339,29.829774 C8.718618,29.470392 9.378909,28.882725 9.506802,28.833864 C9.559401,28.813839 9.669405,28.739079 9.751641,28.667523 C10.093668,28.370352 11.166474,27.882543 11.836911,27.719139 C11.971479,27.686565 12.091896,27.645981 12.103911,27.62916 C12.280665,27.387792 15.659283,27.395268 15.745524,27.637437 C15.753801,27.660399 15.794919,27.679089 15.837372,27.679089 C15.955386,27.679089 17.006832,28.032597 17.132589,28.114566 C17.193732,28.154349 17.41107,28.271295 17.615325,28.374357 C17.81958,28.477419 18.029976,28.600506 18.082575,28.647765 C18.135174,28.695024 18.278286,28.799955 18.400839,28.880856 C18.523125,28.961757 18.683325,29.084844 18.75675,29.154531 C19.307838,29.677317 19.621563,29.996115 19.734237,30.148839 C19.806594,30.246561 19.917666,30.379527 19.981212,30.443874 C20.044758,30.508488 20.145417,30.663615 20.204958,30.788838 L20.313093,31.016589 L24.062841,31.016589 C26.852991,31.016589 27.812589,31.003506 27.812589,30.965592 C27.812589,30.878283 27.492723,29.838585 27.458814,29.815089 C27.440925,29.802807 27.333057,29.483475 27.218781,29.10567 C27.104772,28.727598 26.994501,28.407198 26.973942,28.393581 C26.953383,28.379964 26.830296,28.018446 26.7,27.589911 C26.569704,27.161643 26.449287,26.801193 26.431932,26.788911 C26.414577,26.776629 26.386275,26.716821 26.368653,26.655411 C26.255712,26.260518 25.96575,25.383423 25.941987,25.365 C25.926234,25.352718 25.827978,25.062489 25.723848,24.719661 C25.619451,24.3771 25.497966,24.01665 25.453911,23.918661 C25.409856,23.820939 25.287303,23.460489 25.181838,23.117661 C25.076106,22.7751 24.976515,22.484604 24.960228,22.472589 C24.944208,22.460307 24.846486,22.169811 24.743157,21.82725 C24.639828,21.484689 24.52929,21.162954 24.49725,21.112491 C24.465477,21.061761 24.335448,20.681286 24.208623,20.266902 C24.081531,19.852251 23.962449,19.493136 23.943759,19.468839 C23.925069,19.444275 23.814264,19.123875 23.697585,18.75675 C23.580906,18.389625 23.469834,18.069225 23.45061,18.044661 C23.431386,18.020364 23.321649,17.689818 23.206572,17.310411 C23.091495,16.931271 22.983627,16.610604 22.966806,16.598589 C22.935033,16.57536 22.927023,16.552131 22.664829,15.708411 C22.577253,15.426993 22.49208,15.186693 22.475793,15.174411 C22.459506,15.162396 22.379673,14.931975 22.298772,14.662839 C22.088109,13.963032 21.979173,13.642632 21.943395,13.617 C21.92604,13.604718 21.814167,13.269366 21.694284,12.871536 C21.574668,12.473973 21.460392,12.1485 21.440634,12.1485 C21.420609,12.1485 21.404589,12.125271 21.404589,12.097236 C21.404589,12.017136 20.993409,10.74942 20.9595,10.724589 C20.942679,10.712307 20.832942,10.381761 20.715195,9.990339 C20.597715,9.59865 20.487177,9.268104 20.469822,9.256089 C20.443923,9.237666 20.165709,8.393145 20.044491,7.965411 C20.027136,7.904268 19.998567,7.844193 19.981212,7.831911 C19.96359,7.819629 19.844775,7.469592 19.716882,7.053873 C19.589256,6.638154 19.46964,6.28785 19.45095,6.275301 C19.432527,6.262485 19.321989,5.941818 19.20531,5.562411 C19.088631,5.183004 18.978093,4.852725 18.959403,4.828161 C18.940713,4.803864 18.828306,4.473318 18.709224,4.093911 C18.590142,3.714504 18.479604,3.394371 18.463851,3.382089 C18.447831,3.369807 18.339963,3.049407 18.224085,2.67 C18.108207,2.290593 17.997936,1.960314 17.978712,1.93575 C17.93973,1.885554 17.773656,1.394541 17.621733,0.878964 L17.520006,0.534 L13.901622,0.534 L10.283238,0.534 L10.143063,0.990036 M28.747089,15.775161 L28.747089,31.016589 L32.128911,31.016589 L35.511,31.016589 L35.511801,29.937375 L35.512602,28.858161 L35.634087,29.064552 C35.862906,29.453037 36.556572,30.126144 36.957339,30.348822 C37.055061,30.403023 37.245966,30.515697 37.381335,30.598734 C37.639791,30.757599 37.923078,30.87588 38.403411,31.025667 C38.562543,31.075329 38.702718,31.130865 38.715,31.149288 C38.849034,31.35114 41.364708,31.633359 42.51975,31.576488 C43.616586,31.522287 45.07227,31.290264 45.167322,31.154361 C45.179604,31.137006 45.390534,31.058241 45.63564,30.979743 C45.881013,30.901245 46.211559,30.769881 46.36989,30.688179 C47.0721,30.326127 47.284365,30.206244 47.330556,30.146169 C47.35779,30.110925 47.395437,30.082089 47.414394,30.082089 C47.433084,30.082089 47.546292,30.011868 47.665374,29.926161 C47.784723,29.840454 47.89713,29.769966 47.915553,29.769699 C47.933709,29.769165 48.037839,29.678919 48.146775,29.569449 C48.255711,29.459712 48.360375,29.37 48.379332,29.37 C48.4338,29.37 49.573089,28.206147 49.573089,28.150344 C49.573089,28.118037 49.824069,27.782952 49.909242,27.701784 C49.974924,27.639039 50.165295,27.335193 50.280906,27.108777 C50.334039,27.00438 50.416809,26.879691 50.464869,26.831631 C50.512662,26.783838 50.551911,26.72403 50.551911,26.698932 C50.551911,26.673567 50.66325,26.428461 50.79942,26.153718 C50.935323,25.878975 51.118485,25.433886 51.206328,25.16475 C51.294171,24.895614 51.382014,24.654513 51.401772,24.628881 C51.493887,24.509532 51.842589,22.745196 51.842589,22.398363 C51.842589,22.320933 51.86742,22.24911 51.898125,22.238964 C51.973152,22.213866 51.979827,18.792528 51.9048,18.743934 C51.877833,18.726579 51.841788,18.571986 51.8247,18.400839 C51.75528,17.701032 51.467988,16.331589 51.390825,16.331589 C51.369999,16.331589 51.352911,16.300617 51.352911,16.26297 C51.352911,16.14816 51.042657,15.268395 50.908089,15.001929 C50.838669,14.864424 50.733204,14.641479 50.67393,14.506911 C50.614656,14.372343 50.475549,14.120829 50.364477,13.94808 C50.253672,13.775064 50.149275,13.590834 50.132721,13.538502 C50.1159,13.486437 50.040606,13.377501 49.965045,13.2966 C49.889217,13.215966 49.778412,13.07232 49.718604,12.977535 C49.467624,12.580773 48.096846,11.214 47.949729,11.214 C47.921694,11.214 47.839458,11.156061 47.766834,11.085039 C47.596221,10.917897 46.774929,10.446375 46.309815,10.248261 C46.109832,10.162821 45.866061,10.056288 45.768339,10.011432 C45.438594,9.859776 44.217603,9.567411 43.914024,9.567411 C43.848876,9.567411 43.788801,9.548721 43.780524,9.525492 C43.730862,9.385317 40.18884,9.377574 40.096458,9.517482 C40.083108,9.537507 39.953079,9.567678 39.807564,9.584499 C38.903769,9.688362 37.485732,10.185516 37.147977,10.516863 C37.116471,10.547835 36.973893,10.650363 36.830781,10.744614 C36.687936,10.839132 36.548028,10.953408 36.519726,10.998531 C36.491691,11.043654 36.448704,11.0805 36.424407,11.0805 C36.40011,11.0805 36.184641,11.27541 35.945676,11.513574 L35.511,11.946648 L35.511,6.240324 L35.511,0.534 L32.128911,0.534 L28.747089,0.534 L28.747089,15.775161 M76.139589,15.775161 L76.139589,31.016589 L79.521411,31.016589 L82.9035,31.016589 L82.904835,27.022536 C82.905903,24.041214 82.918986,23.051445 82.956366,23.117661 C83.004693,23.203902 83.511993,23.826012 83.895138,24.269232 C83.998467,24.388314 84.100728,24.51861 84.122889,24.558393 C84.144783,24.598176 84.25986,24.734613 84.378675,24.861705 C84.49749,24.988797 84.594411,25.110549 84.594411,25.13271 C84.594411,25.154604 84.68439,25.26087 84.794394,25.369005 C84.904398,25.476873 84.994377,25.585809 84.994644,25.611174 C84.994911,25.636272 85.095036,25.762029 85.217589,25.890189 C85.339875,26.018616 85.44,26.134227 85.44,26.147043 C85.44,26.168403 85.876545,26.701869 86.335785,27.241743 C86.43324,27.356286 86.575017,27.536511 86.650845,27.642243 C86.72694,27.748242 86.813982,27.849702 86.84442,27.867858 C86.874858,27.886281 86.974449,28.006431 87.065496,28.134858 C87.156543,28.263552 87.288708,28.415208 87.358929,28.472079 C87.429417,28.52895 87.487089,28.60104 87.487089,28.632012 C87.487089,28.663251 87.587214,28.793013 87.7095,28.920639 C87.831786,29.048265 87.931911,29.162808 87.931911,29.17509 C87.931911,29.202591 88.586061,30.003858 88.877625,30.333336 C88.99377,30.464967 89.089089,30.589923 89.089089,30.611283 C89.089089,30.632643 89.171325,30.732501 89.272251,30.83316 L89.455413,31.016589 L93.566412,31.016589 C95.840451,31.016589 97.677411,30.999234 97.677411,30.978141 C97.677411,30.940227 97.482768,30.668154 97.346331,30.515697 C97.307883,30.47271 97.202685,30.332535 97.112439,30.204108 C97.022193,30.075681 96.882285,29.902398 96.801117,29.818827 C96.720216,29.734989 96.654,29.64768 96.654,29.624718 C96.654,29.601489 96.576303,29.489616 96.481251,29.376141 C96.285807,29.142516 95.838048,28.556184 95.545683,28.151145 C95.437548,28.001625 95.332083,27.872397 95.310723,27.86412 C95.289363,27.855576 95.205792,27.745305 95.124891,27.619014 C95.04399,27.492456 94.914495,27.329319 94.837065,27.256161 C94.759368,27.183003 94.695555,27.102903 94.694754,27.078339 C94.69422,27.053775 94.5714,26.883696 94.422147,26.7 C94.272894,26.516571 94.098276,26.285349 94.033929,26.186292 C93.969849,26.087235 93.842223,25.928904 93.750375,25.834386 C93.658527,25.740135 93.5835,25.639743 93.5835,25.611708 C93.5835,25.583406 93.509274,25.481412 93.418494,25.384758 C93.327714,25.288371 93.198486,25.124967 93.131202,25.021905 C93.064185,24.918843 92.95338,24.774396 92.884761,24.700704 C92.816409,24.627012 92.690118,24.464142 92.604411,24.339186 C92.518704,24.213963 92.391345,24.048156 92.321391,23.970726 C92.25117,23.893296 92.13903,23.745378 92.071746,23.642049 C92.004729,23.53872 91.876836,23.379054 91.787658,23.287206 C91.69848,23.195358 91.625589,23.103243 91.625589,23.082417 C91.625589,23.061591 91.496628,22.880832 91.339098,22.680582 C91.181301,22.480599 90.922044,22.146582 90.762645,21.938589 C90.603246,21.730329 90.418215,21.493233 90.351198,21.410997 C90.284181,21.329028 90.150147,21.148803 90.053493,21.010497 C89.956572,20.872458 89.84016,20.733084 89.79477,20.701044 C89.749113,20.669004 89.712,20.62308 89.712,20.598516 C89.712,20.574219 89.599593,20.413485 89.462355,20.24127 L89.21271,19.928346 L89.347011,19.809798 C89.420703,19.74465 89.499468,19.655205 89.521629,19.61115 C89.544057,19.566828 89.654595,19.426653 89.767269,19.299561 C90.259617,18.7434 90.78,18.110877 90.78,18.068424 C90.78,18.043326 90.798957,18.0225 90.822186,18.0225 C90.845148,18.0225 90.95622,17.907423 91.068627,17.766714 C91.181301,17.626005 91.352715,17.427357 91.449369,17.325363 C91.54629,17.223369 91.625589,17.121375 91.625589,17.09868 C91.625589,17.075985 91.725714,16.959039 91.848,16.839156 C91.970286,16.719006 92.070411,16.599657 92.070411,16.573758 C92.070411,16.548126 92.143035,16.45788 92.231679,16.373508 C92.320323,16.289136 92.455425,16.137747 92.532054,16.036821 C92.676501,15.846183 93.511944,14.856414 93.911109,14.402781 C94.036866,14.259936 94.153812,14.105343 94.171167,14.059686 C94.188255,14.013762 94.243791,13.950483 94.294521,13.918977 C94.345251,13.887471 94.478751,13.736616 94.591158,13.583625 C94.703565,13.430634 94.811433,13.305411 94.830924,13.305411 C94.850148,13.305411 94.959084,13.175382 95.072559,13.01625 C95.186034,12.857118 95.296038,12.727089 95.316864,12.727089 C95.33769,12.727089 95.391891,12.66915 95.437014,12.598662 C95.512041,12.481716 95.722437,12.2286 96.108786,11.789919 C96.188352,11.699673 96.2535,11.61717 96.2535,11.60649 C96.2535,11.59581 96.345615,11.488209 96.458289,11.367258 C96.570963,11.246307 96.690312,11.094651 96.723687,11.030304 C96.757062,10.965957 96.813399,10.902144 96.849177,10.88826 C96.884955,10.874643 97.000032,10.747284 97.104963,10.60524 C97.209894,10.463196 97.351404,10.300059 97.419756,10.242654 C97.764453,9.952692 97.979655,9.967911 93.561339,9.967911 C90.635286,9.967911 89.5785,9.981261 89.5785,10.018107 C89.5785,10.045875 89.488521,10.160952 89.37825,10.27416 C89.268246,10.387101 89.062923,10.611381 88.922214,10.772115 C88.364718,11.408643 88.148448,11.653749 87.780789,12.065196 C87.570393,12.30069 87.397911,12.503343 87.397911,12.515358 C87.397911,12.527373 87.313005,12.626964 87.208875,12.736701 C87.104745,12.846438 86.906364,13.06431 86.767524,13.221039 C86.628684,13.377501 86.408409,13.62234 86.278113,13.765185 C86.14755,13.907763 86.020725,14.061822 85.995894,14.107479 C85.97133,14.153136 85.866132,14.263407 85.762269,14.352318 C85.658406,14.441229 85.5735,14.541354 85.5735,14.574996 C85.5735,14.608905 85.493667,14.700486 85.396479,14.778717 C85.299024,14.856948 85.208778,14.953068 85.196229,14.99205 C85.183413,15.031299 85.057923,15.185625 84.917214,15.335412 C84.776505,15.485199 84.558633,15.725499 84.433143,15.869412 C83.759769,16.642644 83.372352,17.082126 83.241255,17.2215 C83.160621,17.307207 83.051685,17.4351 82.999086,17.505588 L82.9035,17.634015 L82.9035,9.083874 L82.9035,0.534 L79.521411,0.534 L76.139589,0.534 L76.139589,15.775161 M13.971309,8.6775 C13.989732,8.689782 14.035656,8.819811 14.073303,8.966661 C14.345643,10.033326 14.432151,10.34892 14.45805,10.368411 C14.47407,10.380693 14.524533,10.540893 14.569656,10.724589 C14.758425,11.48901 14.910081,12.041967 14.950398,12.111921 C14.973894,12.153039 15.095112,12.582642 15.219267,13.066446 C15.343689,13.550517 15.461436,13.967304 15.48066,13.993203 C15.499884,14.018835 15.551682,14.179836 15.59547,14.35125 C15.813876,15.204849 15.936696,15.650205 15.976212,15.730839 C15.999975,15.7797 16.111314,16.1802 16.223187,16.62075 C16.33506,17.0613 16.445331,17.428425 16.468026,17.436702 C16.490988,17.444712 16.509411,17.476752 16.509411,17.507457 C16.509411,17.602242 16.905372,19.108122 16.950495,19.185018 C16.973724,19.224801 17.086131,19.615155 17.199873,20.052234 C17.313882,20.48958 17.454324,20.987268 17.511729,21.158415 C17.641758,21.543963 17.656176,21.534885 17.212689,21.347184 C17.009502,21.26121 16.793232,21.176037 16.732089,21.158148 C16.670946,21.140259 16.61007,21.10902 16.596987,21.088728 C16.559607,21.031056 15.555153,20.794761 15.0855,20.733084 C13.856232,20.571282 11.984028,20.747235 11.236161,21.094335 C10.941126,21.231573 10.264548,21.493233 10.247994,21.476946 C10.225299,21.453984 10.468002,20.540577 10.504047,20.514411 C10.520868,20.502129 10.631139,20.111775 10.749153,19.646661 C10.8669,19.181814 10.976637,18.791193 10.99239,18.778911 C11.023896,18.754881 11.438013,17.190528 11.436945,17.099214 C11.436678,17.068509 11.454834,17.043411 11.477262,17.043411 C11.499957,17.043411 11.547483,16.918455 11.583261,16.765464 C11.726907,16.15083 11.937837,15.372258 11.97228,15.329271 C11.992572,15.30444 12.10044,14.923965 12.212046,14.483949 C12.323919,14.043666 12.434457,13.650642 12.457686,13.609791 C12.496668,13.541973 12.609075,13.138269 12.863259,12.150369 C12.916659,11.943444 12.977802,11.743194 12.999162,11.705547 C13.034139,11.643603 13.374831,10.374819 13.429833,10.101411 C13.442115,10.040268 13.467747,9.979926 13.486971,9.967377 C13.505928,9.954828 13.608189,9.604257 13.713921,9.188538 C13.823925,8.756532 13.912836,8.480454 13.921914,8.544 C13.930458,8.605143 13.952619,8.665218 13.971309,8.6775 M63.279,9.372501 C62.676381,9.397866 61.699695,9.488379 61.677,9.52122 C61.664718,9.538842 61.434297,9.586902 61.165161,9.627753 C60.637035,9.707853 59.451555,9.990072 59.410437,10.045341 C59.396553,10.064031 59.275068,10.115562 59.1405,10.159617 C58.822503,10.264281 58.18998,10.515795 58.161411,10.54917 C58.149129,10.563588 57.939534,10.671189 57.695496,10.788402 C57.451191,10.905882 57.230916,11.027367 57.205818,11.058339 C57.18072,11.089578 57.060036,11.169678 56.93775,11.236161 C56.284935,11.591805 55.200915,12.555141 54.569193,13.341189 C54.476811,13.455999 54.376152,13.576683 54.345447,13.609257 C54.249861,13.71045 54.022911,14.053812 54.022911,14.097333 C54.022911,14.120295 53.976186,14.186778 53.919315,14.244984 C53.862177,14.303457 53.727075,14.521329 53.61894,14.729589 C53.510805,14.937582 53.406141,15.119676 53.386116,15.134361 C53.341794,15.166935 52.9995,16.014393 52.9995,16.091556 C52.9995,16.121994 52.971732,16.17486 52.93809,16.208502 C52.865199,16.28166 52.688979,16.853574 52.557882,17.443911 C52.506351,17.676468 52.435329,17.966964 52.400352,18.08925 C52.146435,18.977826 52.157115,22.515576 52.415304,22.991637 C52.439601,23.036493 52.482321,23.203368 52.510089,23.3625 C52.58031,23.765937 52.803255,24.529824 52.934352,24.816315 C52.994694,24.948213 53.044089,25.0713 53.044089,25.089456 C53.044089,25.147662 53.359683,25.873902 53.395461,25.898199 C53.414151,25.910748 53.490513,26.041311 53.564739,26.188161 C53.718264,26.49174 53.7738,26.584389 54.105414,27.091956 C54.236244,27.292473 54.360933,27.456411 54.382293,27.456411 C54.403653,27.456411 54.449577,27.51168 54.484554,27.578964 C54.519264,27.646248 54.641817,27.801375 54.75636,27.923661 C54.87117,28.046214 55.045521,28.241391 55.14351,28.357536 C55.241499,28.473948 55.339221,28.569 55.360314,28.569 C55.381674,28.569 55.492479,28.669125 55.607022,28.791411 C55.721565,28.913964 55.833972,29.014089 55.857201,29.014089 C55.880163,29.014089 55.989099,29.104068 56.09937,29.214339 C56.209374,29.324343 56.322849,29.414589 56.351685,29.414589 C56.380254,29.414589 56.493996,29.494689 56.604,29.592411 C56.714004,29.6904 56.818935,29.7705 56.836824,29.7705 C56.854713,29.7705 56.978868,29.840454 57.112635,29.926161 C57.246669,30.011868 57.377232,30.082089 57.402864,30.082089 C57.428496,30.082089 57.449589,30.099177 57.449589,30.120003 C57.449589,30.153111 58.297848,30.5715 58.365132,30.5715 C58.379016,30.5715 58.417464,30.598467 58.450572,30.631575 C58.483413,30.664683 58.807551,30.78777 59.170404,30.90525 C59.533257,31.022463 59.850186,31.133268 59.87475,31.151157 C59.916402,31.181328 60.191145,31.25235 60.720339,31.369296 C61.760304,31.599183 64.138473,31.715328 65.404854,31.598115 C66.345495,31.510806 67.731225,31.261962 67.88475,31.152492 C67.909314,31.13487 68.226243,31.024065 68.589363,30.906051 C68.952483,30.78777 69.276354,30.664149 69.309195,30.631308 C69.342303,30.598467 69.382887,30.5715 69.399441,30.5715 C69.469395,30.5715 70.309911,30.154446 70.309911,30.119736 C70.309911,30.09891 70.331004,30.082089 70.356636,30.082089 C70.382268,30.082089 70.512831,30.011868 70.646865,29.926161 C70.780632,29.840454 70.901316,29.7705 70.914666,29.7705 C70.928283,29.7705 71.034282,29.6904 71.150427,29.592411 C71.266572,29.494689 71.381916,29.414589 71.407014,29.414589 C71.431845,29.414589 71.543718,29.324343 71.655324,29.214339 C71.767197,29.104068 71.877468,29.014089 71.900697,29.014089 C71.960772,29.014089 73.246911,27.68256 73.247445,27.619815 C73.247712,27.591246 73.314462,27.503136 73.39563,27.424371 C73.476798,27.345339 73.589472,27.191013 73.645809,27.081276 C73.702413,26.971806 73.787319,26.840175 73.834845,26.789178 C73.998783,26.613225 74.598999,25.428279 74.737839,25.006419 C74.781627,24.873186 74.831823,24.754104 74.848911,24.742089 C74.911656,24.6975 75.149553,23.846838 75.253416,23.29575 C75.285723,23.124336 75.32604,22.974282 75.343128,22.962 C75.59838,22.779639 75.595977,18.602958 75.340191,18.044661 C75.317763,17.9958 75.256353,17.7555 75.203487,17.510661 C75.087876,16.97319 74.891631,16.314768 74.841168,16.294476 C74.820876,16.286199 74.804589,16.259766 74.804589,16.235469 C74.804589,16.156437 74.443071,15.26439 74.388069,15.207519 C74.358699,15.177081 74.252166,14.981904 74.151507,14.773911 C74.050848,14.565918 73.917081,14.34057 73.854603,14.273286 C73.791858,14.206002 73.706952,14.080245 73.666101,13.993737 C73.624983,13.907229 73.533936,13.775064 73.463715,13.69977 C73.393494,13.624743 73.336089,13.552386 73.336089,13.539303 C73.336089,13.505661 72.96576,13.06698 72.670992,12.751386 C72.360204,12.418437 71.437986,11.6145 71.366964,11.6145 C71.353881,11.6145 71.28366,11.559498 71.211036,11.492214 C71.138412,11.42493 70.971003,11.31279 70.839105,11.24337 C70.707207,11.17395 70.57878,11.09118 70.553682,11.059407 C70.528584,11.027634 70.308309,10.905882 70.064004,10.788402 C69.819966,10.671189 69.610104,10.560384 69.597555,10.542228 C69.575661,10.510188 69.152199,10.34091 68.7525,10.20474 C68.642229,10.167093 68.471883,10.100076 68.37336,10.055754 C68.063907,9.916113 66.523317,9.567411 66.216,9.567411 C66.14658,9.567411 66.083301,9.549255 66.075024,9.527094 C66.045654,9.446727 64.088811,9.338859 63.279,9.372501 M99.235089,20.49225 L99.235089,31.016589 L102.616911,31.016589 L105.999,31.016589 L105.999,20.49225 L105.999,9.967911 L102.616911,9.967911 L99.235089,9.967911 L99.235089,20.49225 M40.4505,15.0855 C40.4505,15.110064 40.538343,15.130089 40.645944,15.130089 C41.584983,15.130089 42.756846,15.662754 43.539957,16.445865 C44.176752,17.08266 44.696601,18.005946 44.83464,18.745536 C44.851995,18.837384 44.880564,18.912411 44.898453,18.912411 C45.124335,18.912411 45.127005,21.979707 44.901123,22.161 C44.885904,22.173282 44.828499,22.340157 44.773497,22.531863 C44.647473,22.971612 44.520915,23.257836 44.278212,23.651661 C44.172747,23.823075 44.05767,24.018252 44.02296,24.085536 C43.987983,24.15282 43.943928,24.208089 43.924971,24.208089 C43.905747,24.208089 43.802418,24.31836 43.694817,24.452928 C43.587216,24.587763 43.419006,24.75624 43.321017,24.827262 C43.223028,24.898284 43.093266,25.003215 43.032924,25.060353 C42.898089,25.187712 42.770463,25.261671 42.235395,25.523064 C40.70148,26.272266 38.355618,26.02182 37.158924,24.981588 C36.339234,24.268698 35.842881,23.558745 35.575881,22.717161 C35.506194,22.496886 35.434905,22.306782 35.417817,22.2945 C35.166036,22.114008 35.164434,18.92496 35.416215,18.734589 C35.432502,18.722307 35.492844,18.562107 35.550516,18.378411 C35.790282,17.615592 36.690606,16.242678 36.951465,16.242411 C36.979233,16.242411 37.079358,16.162311 37.17441,16.064589 C37.269462,15.9666 37.363446,15.8865 37.383738,15.8865 C37.40403,15.8865 37.526583,15.822954 37.656078,15.745524 C38.240274,15.396021 38.883477,15.191499 39.550977,15.143172 C39.75363,15.128487 39.930117,15.099651 39.942933,15.078825 C39.976041,15.025425 40.4505,15.031566 40.4505,15.0855 M64.168911,15.0855 C64.168911,15.110064 64.255686,15.130089 64.361418,15.130089 C64.831872,15.130089 66.038712,15.432066 66.124686,15.57144 C66.139905,15.596004 66.231219,15.649137 66.327873,15.689454 C66.705678,15.847251 67.266111,16.311297 67.621221,16.760658 C67.721079,16.886949 67.833486,17.020983 67.871133,17.058363 C67.908513,17.09601 68.025192,17.303202 68.130123,17.518938 C68.235054,17.734674 68.335713,17.921307 68.353602,17.933589 C68.474019,18.015558 68.729004,19.123608 68.800026,19.871475 C68.93673,21.316746 68.493243,23.26638 67.875672,23.932812 C67.819602,23.993421 67.773411,24.059904 67.773411,24.080997 C67.773411,24.21156 66.538002,25.320411 66.39222,25.320411 C66.372729,25.320411 66.169809,25.409055 65.941257,25.51719 C64.802235,26.05653 62.984766,26.068011 61.868706,25.542822 C61.229241,25.241913 61.087464,25.165818 61.067172,25.112418 C61.055424,25.08198 60.961173,25.007487 60.857844,24.946878 C60.643443,24.821388 60.112647,24.276441 60.008784,24.07539 C59.970603,24.001431 59.920674,23.941089 59.897979,23.941089 C59.854191,23.941089 59.452089,23.144361 59.452089,23.057586 C59.452089,23.029551 59.436069,23.006589 59.416311,23.006589 C59.253441,23.006589 58.962144,21.411798 58.9629434,20.523222 C58.963479,19.625568 59.227542,18.11862 59.408835,17.977911 C59.424588,17.965629 59.534859,17.7555 59.653674,17.510661 C59.772489,17.266089 59.895309,17.045814 59.926548,17.02125 C59.958054,16.996686 60.059247,16.875201 60.151629,16.751046 C60.244011,16.626891 60.429843,16.42851 60.564411,16.309962 C60.699246,16.191681 60.819129,16.082211 60.831411,16.066992 C60.876801,16.010655 61.346454,15.719358 61.438035,15.690789 C61.490367,15.674502 61.57554,15.624306 61.627872,15.579183 C61.808364,15.422721 62.709756,15.182154 63.261645,15.143172 C63.466968,15.128754 63.634911,15.099651 63.634911,15.078825 C63.634911,15.057999 63.755061,15.040911 63.901911,15.040911 C64.050363,15.040911 64.168911,15.060669 64.168911,15.0855" id="path0" fill="#1C1917"></path>
            <path d="M102.082911,0.029637 C101.447985,0.130296 100.570089,0.39516 100.570089,0.486207 C100.570089,0.504897 100.468095,0.575385 100.343406,0.643203 C100.132209,0.75828 99.368589,1.440999 99.368589,1.514958 C99.368589,1.533114 99.312519,1.607874 99.244167,1.681032 C98.179371,2.821122 98.273088,5.543988 99.42012,6.787674 C99.509565,6.884862 99.619569,7.008483 99.664692,7.062684 C99.862272,7.300047 100.392,7.663167 100.7925,7.835649 C101.025057,7.935774 101.275236,8.043909 101.348661,8.075949 C101.854092,8.296224 104.041089,8.276733 104.041089,8.051919 C104.041089,8.032695 104.102232,8.003592 104.177259,7.987038 C104.411952,7.935507 105.037266,7.624452 105.150207,7.502967 C105.209481,7.439154 105.280503,7.387089 105.308004,7.387089 C105.387303,7.387089 106.085508,6.633615 106.150389,6.477954 C106.182696,6.400791 106.241169,6.305472 106.280685,6.266223 C106.716429,5.830479 106.94685,3.885918 106.676913,2.922315 C106.566108,2.527155 106.361853,2.047089 106.304448,2.047089 C106.283355,2.047089 106.266,2.027598 106.266,2.004102 C106.266,1.796376 105.578475,1.036761 105.109089,0.725973 C104.949957,0.620508 104.780412,0.504096 104.732352,0.466983 C104.33025,0.157263 102.835317,-0.089445 102.082911,0.029637" id="path1" fill="#131415"></path>
        </g>
    </g>
</svg>