<?xml version="1.0" encoding="UTF-8"?>
<svg width="117px" height="22px" viewBox="0 0 117 22" version="1.1" xmlns="http://www.w3.org/2000/svg" xmlns:xlink="http://www.w3.org/1999/xlink">
    <title>releaf</title>
    <g id="Website-3.0" stroke="none" stroke-width="1" fill="none" fill-rule="evenodd">
        <g id="releaf" fill="#131415" fill-rule="nonzero">
            <path d="M7.2658,3.5968 L4.8178,3.5968 L4.8178,9.9616 L7.327,9.9616 C8.5102,9.9616 9.4894,9.727 10.2646,9.2578 C11.0398,8.7682 11.4274,7.9726 11.4274,6.871 C11.4274,5.7082 11.0602,4.8718 10.3258,4.3618 C9.5914,3.8518 8.5714,3.5968 7.2658,3.5968 Z M12.9574,21.1 L8.551,13.144 C8.3266,13.1644 8.092,13.1848 7.8472,13.2052 C7.6024,13.2052 7.3576,13.2052 7.1128,13.2052 L4.8178,13.2052 L4.8178,21.1 L0.8704,21.1 L0.8704,0.292 L7.3882,0.292 C9.6526,0.292 11.5906,0.8122 13.2022,1.8526 C14.8138,2.893 15.6196,4.5046 15.6196,6.6874 C15.6196,7.9726 15.283,9.0844 14.6098,10.0228 C13.957,10.9408 13.1104,11.6548 12.07,12.1648 L17.1802,21.1 L12.9574,21.1 Z M37.06884,21.1 L22.50324,21.1 L22.50324,0.292 L34.92684,0.292 L35.53884,3.4132 L26.45064,3.4132 L26.45064,9.013 L32.01984,9.013 L32.66244,12.1648 L26.45064,12.1648 L26.45064,18.0094 L36.42624,18.0094 L37.06884,21.1 Z M56.44102,21.1 L42.70162,21.1 L42.70162,0.292 L46.64902,0.292 L46.64902,18.0094 L55.82902,18.0094 L56.44102,21.1 Z M76.33,21.1 L61.7644,21.1 L61.7644,0.292 L74.188,0.292 L74.8,3.4132 L65.7118,3.4132 L65.7118,9.013 L71.281,9.013 L71.9236,12.1648 L65.7118,12.1648 L65.7118,18.0094 L75.6874,18.0094 L76.33,21.1 Z M89.27618,5.7388 L86.55278,12.991 L92.06078,12.991 L89.27618,5.7388 Z M91.05098,0.292 L99.12938,20.5492 L95.15138,21.1 L93.28478,16.204 L85.38998,16.204 L83.55398,21.1 L79.57598,21.1 L87.68498,0.292 L91.05098,0.292 Z M114.1652,12.2872 L108.29,12.2872 L108.29,21.1 L104.3426,21.1 L104.3426,0.292 L116.1236,0.292 L116.7356,3.4132 L108.29,3.4132 L108.29,9.1966 L113.5838,9.1966 L114.1652,12.2872 Z" id="Shape"></path>
        </g>
    </g>
</svg>