<?xml version="1.0" encoding="UTF-8"?>
<svg width="111px" height="40px" viewBox="0 0 111 40" version="1.1" xmlns="http://www.w3.org/2000/svg" xmlns:xlink="http://www.w3.org/1999/xlink">
    <title>spleet</title>
    <g id="Website-3.0" stroke="none" stroke-width="1" fill="none" fill-rule="evenodd">
        <g id="spleet" fill="#1C1917" fill-rule="nonzero">
            <path d="M15.1083,14.3835 C14.7291,14.6489 14.2299,14.611 13.876,14.314 C13.6801,14.1497 13.4715,13.998 13.244,13.8526 C12.8522,13.5935 12.3782,13.366 11.8284,13.1701 C11.2723,12.9742 10.6719,12.8794 10.021,12.8794 C8.9151,12.8794 8.0682,13.1196 7.4805,13.6062 C6.8928,14.0865 6.6021,14.6236 6.6021,15.2177 C6.6021,15.9318 6.8928,16.4753 7.4805,16.8545 C8.0682,17.2273 8.8076,17.5623 9.705,17.8593 C10.6024,18.1563 11.563,18.4407 12.5868,18.7251 C13.6106,19.0032 14.5711,19.395 15.4685,19.8942 C16.3659,20.3935 17.1053,21.0444 17.693,21.8533 C18.2681,22.6433 18.5588,23.6734 18.5715,24.9373 C18.5778,25.6198 18.483,26.3087 18.2618,26.9596 C17.87,28.1034 17.1812,29.0956 16.2016,29.9298 C15.4369,30.5807 14.508,31.0989 13.4147,31.4718 C12.3214,31.8447 11.108,32.0343 9.7745,32.0343 C8.2136,32.0343 6.8738,31.8257 5.7679,31.4023 C4.662,30.9789 3.733,30.5049 2.9809,29.9867 C2.2731,29.5127 1.6475,28.9692 1.1103,28.3499 C0.7627,27.9518 0.7311,27.3577 1.0155,26.9153 C1.1735,26.6752 1.4073,26.3782 1.7486,26.0369 C2.2479,25.5377 2.6397,25.2406 2.9557,25.07 C3.3854,24.8299 3.9036,24.9183 4.2512,25.2659 C4.6177,25.6325 5.0222,25.9674 5.4645,26.2707 C5.9828,26.6057 6.5958,26.9217 7.2972,27.2124 C7.9987,27.5031 8.8203,27.6484 9.7619,27.6484 C11.1269,27.6484 12.1254,27.383 12.7385,26.8521 C13.3578,26.3213 13.6674,25.6514 13.6674,24.8425 C13.6674,24.16 13.3767,23.6228 12.789,23.231 C12.2013,22.8392 11.4619,22.4979 10.5645,22.2009 C9.6671,21.9039 8.7065,21.6195 7.6827,21.3351 C6.659,21.057 5.6984,20.6652 4.801,20.166 C3.9036,19.6667 3.1642,19.0221 2.5765,18.2258 C1.9887,17.4296 1.698,16.3679 1.698,15.0281 C1.698,14.2192 1.9003,13.4166 2.311,12.6203 C2.7155,11.824 3.2906,11.1289 4.0237,10.5159 C4.7567,9.9092 5.6289,9.41626 6.6337,9.04341 C7.6448,8.67055 8.7634,8.48096 10.002,8.48096 C11.2723,8.48096 12.3782,8.65159 13.3262,8.99285 C14.2678,9.33411 15.0704,9.70065 15.7213,10.0925 C16.2522,10.4148 16.7135,10.7687 17.118,11.1605 C17.4087,11.4449 17.4592,11.8999 17.2254,12.2348 C17.0168,12.5255 16.7135,12.9237 16.2585,13.4166 C15.9172,13.7831 15.4749,14.1244 15.1083,14.3835 Z" id="Path"></path>
            <path d="M31.6093,32.0153 C30.4338,32.0153 29.3848,31.851 28.4558,31.5287 C27.5268,31.2064 26.7369,30.8462 26.0859,30.4544 C25.3023,29.9994 24.6198,29.4622 24.0321,28.8429 L24.0321,39.8201 C24.0321,39.9212 23.9499,39.997 23.8551,39.997 L19.3239,39.997 C19.2228,39.997 19.147,39.9149 19.147,39.8201 L19.147,8.69586 C19.147,8.59475 19.2291,8.51891 19.3239,8.51891 L22.9514,8.51891 C23.5518,8.51891 24.0321,9.00552 24.0321,9.59957 L24.0321,10.2442 L24.0321,11.11 C24.0321,11.2616 24.209,11.3438 24.3228,11.2427 C24.841,10.7877 25.4287,10.3769 26.0796,10.0103 C26.7305,9.63749 27.5205,9.28359 28.4495,8.95497 C29.3785,8.62635 30.4275,8.46204 31.603,8.46204 C33.1323,8.46204 34.5922,8.76538 35.9762,9.37838 C37.3602,9.99139 38.5799,10.8193 39.6416,11.8746 C40.6969,12.9237 41.5375,14.175 42.1568,15.6159 C42.7761,17.0567 43.0858,18.5987 43.0858,20.2292 C43.0858,21.8913 42.7761,23.4396 42.1568,24.8678 C41.5375,26.2961 40.6969,27.5347 39.6416,28.5901 C38.5799,29.6391 37.3602,30.4733 35.9762,31.0863 C34.5985,31.712 33.1387,32.0153 31.6093,32.0153 Z M31.1227,12.8668 C30.2127,12.8668 29.3342,13.0564 28.4874,13.4419 C27.6406,13.8274 26.8822,14.3456 26.2187,15.0092 C25.5488,15.6727 25.0242,16.4437 24.6324,17.3348 C24.2406,18.2259 24.0447,19.1928 24.0447,20.2355 C24.0447,21.2783 24.2406,22.2515 24.6324,23.1426 C25.0242,24.0336 25.5551,24.8109 26.2187,25.4682 C26.8885,26.1317 27.6406,26.65 28.4874,27.0355 C29.3342,27.421 30.2127,27.6105 31.1227,27.6105 C32.0327,27.6105 32.9111,27.421 33.758,27.0355 C34.6048,26.65 35.3632,26.1317 36.0267,25.4682 C36.6966,24.8046 37.2211,24.0336 37.613,23.1426 C38.0048,22.2515 38.2007,21.2846 38.2007,20.2355 C38.2007,19.1928 38.0048,18.2259 37.613,17.3348 C37.2211,16.4437 36.6903,15.6664 36.0267,15.0092 C35.3568,14.3456 34.6048,13.8274 33.758,13.4419 C32.9111,13.0627 32.0327,12.8668 31.1227,12.8668 Z" id="Shape"></path>
            <path d="M48.9188,31.9647 L44.3055,31.9647 C44.2296,31.9647 44.1664,31.9015 44.1664,31.8257 L44.1664,0.139032 C44.1664,0.0631963 44.2296,0 44.3055,0 L48.9188,0 C48.9946,0 49.0578,0.0631963 49.0578,0.139032 L49.0578,31.8257 C49.0578,31.9079 48.9946,31.9647 48.9188,31.9647 Z" id="Path"></path>
            <path d="M55.8826,21.3667 C55.4339,21.3667 55.0927,21.7964 55.219,22.2325 C55.3644,22.7381 55.5666,23.231 55.8321,23.7239 C56.2365,24.4886 56.761,25.1585 57.393,25.7273 C58.025,26.296 58.7707,26.751 59.6175,27.1049 C60.4644,27.4525 61.3744,27.6295 62.3539,27.6295 C63.4915,27.6295 64.5089,27.4399 65.4063,27.067 C66.304,26.6942 67.043,26.2771 67.631,25.8221 C68.124,25.4239 68.572,24.9879 68.983,24.5202 C69.242,24.2295 69.697,24.2232 69.969,24.4949 L70.829,25.3544 L72.168,26.6942 C72.427,26.9533 72.434,27.3704 72.187,27.6421 C71.555,28.3499 70.816,28.9945 69.975,29.5759 C69.097,30.1952 68.023,30.7577 66.752,31.2633 C65.4821,31.7688 64.016,32.0216 62.3539,32.0216 C60.6919,32.0216 59.1309,31.7056 57.6648,31.08 C56.1986,30.4543 54.9031,29.5886 53.7845,28.4889 C52.6596,27.3893 51.7748,26.1191 51.1239,24.6719 C50.473,23.2247 50.1444,21.6764 50.1444,20.0143 C50.1444,18.4154 50.4604,16.9114 51.0987,15.5147 C51.7369,14.1181 52.5901,12.8984 53.6644,11.8683 C54.7388,10.8319 56.0027,10.0103 57.4499,9.39731 C58.8971,8.7843 60.4517,8.48096 62.1138,8.48096 C63.7758,8.48096 65.3052,8.7527 66.708,9.28987 C68.111,9.82704 69.318,10.5854 70.348,11.5523 C71.372,12.5255 72.175,13.6694 72.743,14.9965 C73.312,16.3236 73.597,17.7708 73.597,19.3381 C73.597,19.6794 73.578,19.989 73.546,20.2608 C73.514,20.5388 73.483,20.7853 73.445,21.0002 C73.413,21.2466 73.382,21.3667 73.35,21.3667 C73.047,21.3667 72.958,21.3667 72.958,21.3667 L55.8826,21.3667 L55.8826,21.3667 Z M62.1011,12.6266 C60.2432,12.6266 58.7328,13.0817 57.5573,13.9854 C56.6726,14.6679 56.009,15.4768 55.573,16.4121 C55.3644,16.8545 55.712,17.3664 56.2049,17.3664 L67.865,17.3664 C68.358,17.3664 68.68,16.8608 68.497,16.4058 C68.117,15.4768 67.492,14.6679 66.62,13.9854 C65.4632,13.0753 63.9591,12.6266 62.1011,12.6266 Z" id="Shape"></path>
            <path d="M74.962,21.3667 C74.962,21.3667 74.874,21.3667 74.57,21.3667 C74.539,21.3667 74.507,21.2466 74.476,21.0002 C74.444,20.7853 74.412,20.5388 74.374,20.2608 C74.343,19.9827 74.324,19.673 74.324,19.3381 C74.324,17.7645 74.608,16.3173 75.177,14.9965 C75.746,13.6694 76.542,12.5255 77.572,11.5523 C78.596,10.5791 79.809,9.82704 81.212,9.28987 C82.615,8.7527 84.145,8.48096 85.807,8.48096 C87.469,8.48096 89.023,8.7843 90.471,9.39731 C91.918,10.0103 93.182,10.8319 94.256,11.8683 C95.33,12.9047 96.184,14.1181 96.822,15.5147 C97.46,16.9114 97.776,18.4091 97.776,20.0143 C97.776,21.6764 97.454,23.231 96.797,24.6719 C96.146,26.1128 95.261,27.3893 94.136,28.4889 C93.011,29.5886 91.716,30.4543 90.256,31.08 C88.79,31.7056 87.229,32.0216 85.567,32.0216 C83.904,32.0216 82.438,31.7688 81.168,31.2633 C79.898,30.7577 78.823,30.1952 77.945,29.5759 C77.098,28.9945 76.365,28.3499 75.733,27.6421 C75.487,27.3704 75.493,26.9533 75.752,26.6942 L77.092,25.3544 L77.951,24.4949 C78.229,24.2169 78.684,24.2232 78.937,24.5202 C79.348,24.9879 79.797,25.4239 80.29,25.8221 C80.877,26.2771 81.617,26.6942 82.514,27.067 C83.412,27.4399 84.429,27.6295 85.567,27.6295 C86.546,27.6295 87.456,27.4525 88.303,27.1049 C89.15,26.7574 89.889,26.296 90.527,25.7273 C91.166,25.1585 91.684,24.4949 92.088,23.7239 C92.348,23.2373 92.55,22.7381 92.701,22.2325 C92.828,21.8028 92.487,21.3667 92.038,21.3667 L74.962,21.3667 Z M81.282,13.9854 C80.41,14.6679 79.784,15.4768 79.405,16.4058 C79.215,16.8608 79.544,17.3664 80.037,17.3664 L91.697,17.3664 C92.19,17.3664 92.537,16.8545 92.329,16.4121 C91.886,15.4768 91.229,14.6679 90.344,13.9854 C89.169,13.0817 87.658,12.6266 85.8,12.6266 C83.942,12.6266 82.438,13.0753 81.282,13.9854 Z" id="Shape"></path>
            <path d="M101.826,0.265503 L104.057,0.265503 C104.658,0.265503 105.138,0.752115 105.138,1.34616 L105.138,5.43497 L105.138,6.59752 C105.138,7.19788 104.958,8.51263 107.043,8.51263 L108.936,8.51263 C109.536,8.51263 110.017,8.99925 110.017,9.59329 L110.017,11.8241 C110.017,12.4245 109.53,12.9048 108.936,12.9048 L106.219,12.9048 C105.618,12.9048 105.138,13.3914 105.138,13.9854 L105.138,24.7099 C105.138,25.563 105.416,26.2582 105.966,26.7953 C106.522,27.3325 107.217,27.6043 108.064,27.6043 C108.683,27.6043 109.239,27.5284 109.726,27.3704 C109.985,27.3072 110.244,27.2314 110.51,27.1366 L110.51,27.6611 L110.51,30.6819 C110.51,31.2001 110.149,31.6488 109.644,31.7436 C109.606,31.7499 109.568,31.7563 109.536,31.7626 C108.822,31.9269 108.007,32.0091 107.091,32.0091 C104.879,32.0091 103.185,31.415 102.01,30.2206 C100.834,29.0262 100.253,27.2377 100.253,24.8489 L100.253,13.9981 C100.253,13.3977 99.766,12.9174 99.172,12.9174 L96.941,12.9174 C96.341,12.9174 95.861,12.4308 95.861,11.8368 L95.861,9.60593 C95.861,9.00556 96.347,8.52527 96.941,8.52527 L98.3,8.52527 C99.046,8.52527 99.646,8.26617 100.082,7.75428 C100.525,7.23607 100.739,6.46507 100.739,5.43497 L100.739,1.35248 C100.746,0.752115 101.232,0.265503 101.826,0.265503 Z" id="Path"></path>
        </g>
    </g>
</svg>