<?xml version="1.0" encoding="UTF-8"?>
<svg width="83px" height="69px" viewBox="0 0 83 69" version="1.1" xmlns="http://www.w3.org/2000/svg" xmlns:xlink="http://www.w3.org/1999/xlink">
    <title>Thrive Agric Logo</title>
    <g id="Website-3.0" stroke="none" stroke-width="1" fill="none" fill-rule="evenodd">
        <g id="Thrive-Agric-Logo" fill="#1C1917">
            <path d="M14.2683897,10.8167609 C11.9531589,15.2534716 10.739022,20.1819659 10.728417,25.1864223 C10.728417,42.2631216 24.57711,56.112583 41.6545777,56.112583 C50.2974284,56.112583 58.2110771,52.6763429 64.1461214,46.4285638 L61.5428161,44.0334922 C56.3362054,49.5520692 49.2554916,52.5718419 41.6545777,52.5718419 C26.5557142,52.5718419 14.2683897,40.2852858 14.2683897,25.1864223 C14.2683897,20.7090137 15.3103266,16.3353379 17.3926635,12.4826304 L14.2683897,10.8167609 Z" id="Path" fill-rule="nonzero" transform="translate(37.437269, 33.464672) scale(-1, 1) rotate(-180.000000) translate(-37.437269, -33.464672) "></path>
            <path d="M11.6848485,5.5180807 C7.61161306,11.5783726 5.418628,18.5799423 5.418628,25.8942467 C5.52312904,45.8524086 21.7115696,62.048533 41.763475,62.048533 C53.5574736,62.0456267 64.6164249,56.3187619 71.4248658,46.6884169 L68.5003734,44.5983961 C62.382096,53.3074009 52.4067862,58.4922915 41.763475,58.4954976 C23.6955525,58.4954976 9.07385923,43.8668888 9.07385923,25.7897457 C9.07385923,19.2069485 11.0586106,12.8323851 14.7138418,7.39909942 L11.6848485,5.5180807 Z" id="Path" fill-rule="nonzero" transform="translate(38.421747, 33.783307) scale(-1, 1) rotate(-180.000000) translate(-38.421747, -33.783307) "></path>
            <path d="M9.71260765,-4.206e-05 C3.44869237,7.51865409 0.004,17.0221016 0.004,26.7337828 C0.004,49.7078754 18.689708,68.505 41.7606178,68.505 C57.1053661,68.505 71.093906,60.1510639 78.4012949,46.6796504 L75.2693373,45.0084022 C68.6116891,57.3075577 55.7460878,64.965731 41.7606178,64.9542698 C20.673691,64.9542698 3.55319341,47.8283935 3.55319341,26.7337828 C3.55319341,17.7528405 6.68515105,9.0854013 12.4265611,2.29744404 L9.71260765,-4.206e-05 Z" id="Path" fill-rule="nonzero" transform="translate(39.202647, 34.252479) scale(-1, 1) rotate(-180.000000) translate(-39.202647, -34.252479) "></path>
            <path d="M30.502,34.184 L30.502,36.892 L28.732,36.892 L28.732,46.472 L25.816,46.472 L25.816,36.892 L24.358,36.892 L24.358,34.184 L25.816,34.184 L25.816,31.997 C26.233,32.831 27.898,33.039 28.732,34.184 L30.502,34.184 Z M40.186,46.472 L40.186,40.224 C40.186,38.454 39.874,36.476 37.687,36.476 C35.5,36.476 35.187,38.558 35.187,40.224 L35.187,46.472 L32.272,46.472 L32.272,30.123 L35.188,30.123 L35.188,35.017 C36.125,34.184 37.166,33.767 38.312,33.767 C40.082,33.767 41.852,34.809 42.582,36.371 C42.998,37.309 43.102,38.453 43.102,39.495 L43.102,46.472 L40.186,46.472 L40.186,46.472 Z M47.996,39.599 L47.996,46.471 L44.976,46.471 L44.976,34.184 L47.683,34.184 L47.683,35.33 C48.413,34.288 49.037,33.768 50.391,33.768 L50.599,33.768 L50.599,36.579 C48.725,36.684 47.996,37.725 47.996,39.599 L47.996,39.599 Z M52.16,32.831 L52.16,30.123 L55.076,30.123 L55.076,32.831 L52.161,32.831 L52.16,32.831 Z M52.16,46.471 L52.16,34.185 L55.076,34.185 L55.076,46.473 L52.161,46.473 L52.16,46.471 Z M63.823,46.576 L61.533,46.576 L56.534,34.288 L59.762,34.288 L62.782,42.41 L65.594,34.288 L68.822,34.288 L63.823,46.576 L63.823,46.576 Z M76.11,33.664 C75.381,33.664 74.653,33.768 74.028,33.976 C71.425,34.913 69.654,37.412 69.654,40.328 C69.654,43.556 71.944,46.159 74.964,46.784 C76.63,46.054 77.984,44.805 78.714,42.931 C78.714,42.827 78.609,42.827 78.609,42.931 C77.984,43.764 77.151,44.181 76.11,44.181 C74.548,44.181 73.194,43.035 72.882,41.577 L82.462,41.577 C82.566,41.057 82.67,40.64 82.67,40.12 C82.462,36.683 79.65,33.664 76.11,33.664 L76.11,33.664 Z M72.674,39.287 C73.09,37.621 74.444,36.371 76.214,36.371 C76.944,36.371 77.568,36.58 78.089,36.891 C78.817,37.412 79.442,38.245 79.65,39.182 L72.674,39.182 L72.674,39.287 Z" id="Shape"></path>
            <path d="M82.0465602,46.887688 C81.3173581,44.3888837 78.7140527,42.6185132 76.1115158,42.6185132 C75.7987811,42.6185132 75.4868147,42.6185132 75.17408,42.7230142 C75.3823137,42.8267468 75.5905474,42.8267468 75.7987811,42.9312479 C77.1526843,43.555949 78.0893517,44.4926164 78.7140527,45.8465195 C79.0267875,46.5757217 79.7559896,46.887688 80.4844233,46.887688 L82.0465602,46.887688 Z" id="Path" fill-rule="nonzero" transform="translate(78.610320, 44.753101) scale(-1, 1) rotate(-180.000000) translate(-78.610320, -44.753101) "></path>
            <path d="M28.7323277,30.8036894 L28.7323277,27.6801841 C27.8993929,28.8258536 26.1290224,29.0340872 25.817056,29.867022 C25.712555,29.9707547 25.712555,30.0752557 25.712555,30.2834894 L25.712555,33.3032621 C26.7537235,33.6152284 28.7323277,32.3658263 28.7323277,30.8036894 L28.7323277,30.8036894 Z" id="Path" fill-rule="nonzero" transform="translate(27.222441, 30.515761) scale(-1, 1) rotate(-180.000000) translate(-27.222441, -30.515761) "></path>
            <path d="M58.721,53.656 L58.721,52.928 C58.513,53.136 58.408,53.344 58.201,53.448 C57.7816409,53.6613382 57.3164407,53.7687977 56.846,53.761 C55.389,53.761 54.348,52.615 54.348,51.157 C54.348,49.7 55.388,48.554 56.951,48.554 C57.576,48.554 58.408,48.867 58.721,49.387 L58.721,48.659 L59.554,48.659 L59.554,53.553 L58.721,53.553 L58.721,53.656 L58.721,53.656 Z M56.951,49.492 C56.013,49.492 55.285,50.325 55.285,51.262 C55.285,52.199 56.013,53.032 56.951,53.032 C57.888,53.032 58.617,52.199 58.617,51.262 C58.721,50.325 57.992,49.492 56.951,49.492 Z M63.094,55.635 C62.365,55.635 61.844,55.426 61.324,54.905 C61.011,54.594 60.908,54.489 60.699,54.073 L61.741,54.073 C62.053,54.593 62.574,54.802 63.198,54.802 C64.239,54.802 64.968,54.177 64.968,53.136 L64.968,53.031 C64.5383484,53.5671707 63.8849979,53.8746514 63.198,53.864 C62.5055949,53.8707478 61.8395839,53.5986713 61.3499563,53.1090437 C60.8603287,52.6194161 60.5882522,51.9534051 60.595,51.261 C60.595,49.803 61.845,48.659 63.302,48.659 C64.032,48.659 64.552,48.867 65.072,49.387 L65.072,48.762 L65.802,48.762 L65.802,53.136 C65.802,54.697 64.552,55.635 63.094,55.635 L63.094,55.635 Z M63.094,49.491 C62.157,49.491 61.324,50.324 61.324,51.261 C61.324,52.198 62.053,53.031 62.99,53.031 C64.031,53.031 64.76,52.198 64.76,51.157 C64.864,50.22 64.031,49.491 63.094,49.491 L63.094,49.491 Z M67.884,51.054 L67.884,53.761 L66.947,53.761 L66.947,48.867 L67.884,48.867 L67.884,49.283 C68.196,48.867 68.613,48.763 69.134,48.763 L69.134,49.7 C68.196,49.7 67.884,50.116 67.884,51.054 L67.884,51.054 Z M69.863,48.242 L69.863,47.2 L70.8,47.2 L70.8,48.24 L69.863,48.24 L69.863,48.242 Z M69.863,53.657 L69.863,48.763 L70.8,48.763 L70.8,53.657 L69.863,53.657 Z M74.131,53.864 C72.674,53.864 71.633,52.719 71.633,51.261 C71.633,49.803 72.673,48.658 74.131,48.658 C75.173,48.658 76.318,49.387 76.527,50.428 L75.485,50.428 C75.173,49.803 74.756,49.491 74.131,49.491 C73.195,49.491 72.466,50.324 72.466,51.261 C72.466,52.199 73.09,53.031 74.028,53.031 C74.652,53.031 75.173,52.615 75.485,52.094 L76.527,52.094 C76.2145848,53.1538191 75.2358324,53.8768541 74.131,53.864 L74.131,53.864 Z" id="Shape" fill-rule="nonzero"></path>
        </g>
    </g>
</svg>