<?xml version="1.0" encoding="UTF-8"?>
<svg width="144px" height="33px" viewBox="0 0 144 33" version="1.1" xmlns="http://www.w3.org/2000/svg" xmlns:xlink="http://www.w3.org/1999/xlink">
    <title>voyance</title>
    <g id="Website-3.0" stroke="none" stroke-width="1" fill="none" fill-rule="evenodd">
        <g id="voyance" fill="#1C1917" fill-rule="nonzero">
            <path d="M2.071944,9.229128 L17.49426,0.228829 C18.42764,-0.3158438 19.6,0.3573616 19.6,1.437988 L19.6,9.634344 C19.6,10.132184 19.33554,10.592574 18.9056,10.843496 L9.799986,16.15742 L17.46066,20.62804 C18.40132,21.17712 18.38242,22.54268 17.42692,23.06544 L2.071958,31.46642 C1.1389952,31.97686 0,31.30164 0,30.2382 L0,22.68044 C0,22.1826 0.264376,21.72228 0.6943524,21.4714 L9.799986,16.15742 L2.071944,11.647446 C1.146138,11.107158 1.146138,9.769416 2.071944,9.229128 Z" id="Path"></path>
            <path d="M50.0668,10.55091 L45.59268,10.55091 L42.69762,20.37646 C42.34664,21.57542 42.1127,22.92054 42.1127,22.92054 L42.05432,22.92054 C42.05432,22.92054 41.82038,21.57542 41.4694,20.37646 L38.57434,10.55091 L34.07096,10.55091 L39.7733,26.31274 L44.39372,26.31274 L50.0668,10.55091 Z" id="Path"></path>
            <path d="M65.58006,18.41716 C65.58006,13.7091 63.03598,10.2 58.44482,10.2 C53.8538,10.2 51.30958,13.7091 51.30958,18.41716 C51.30958,23.12536 53.8538,26.66372 58.44482,26.66372 C63.03598,26.66372 65.58006,23.12536 65.58006,18.41716 Z M61.60308,18.38804 C61.60308,21.54616 60.55028,23.41768 58.44482,23.41768 C56.33936,23.41768 55.28656,21.54616 55.28656,18.38804 C55.28656,15.22978 56.33936,13.329 58.44482,13.329 C60.55028,13.329 61.60308,15.22978 61.60308,18.38804 Z" id="Shape"></path>
            <path d="M82.79362,10.55091 L78.31936,10.55091 L75.36592,20.46424 C75.01494,21.63394 74.83952,22.9498 74.83952,22.9498 L74.781,22.9498 C74.781,22.9498 74.60558,21.63394 74.25474,20.46424 L71.30116,10.55091 L66.79778,10.55091 L72.73406,26.31274 L70.3654,32.6 L74.54706,32.6 L82.79362,10.55091 Z" id="Path"></path>
            <path d="M96.9311,25.52328 L96.9311,15.81456 C96.9311,11.779116 94.67934,10.2 90.64384,10.2 C88.36296,10.2 86.1112,10.78485 84.79534,11.340468 L85.78962,14.03082 C86.9008,13.56294 88.7138,13.09506 90.20522,13.09506 C92.01836,13.09506 93.1588,13.7091 93.1588,15.34668 L93.1588,16.16554 C88.39222,16.42874 83.9181,17.27672 83.9181,21.57542 C83.9181,24.7922 86.28676,26.66372 91.02408,26.66372 C93.39274,26.66372 95.7614,26.13732 96.9311,25.52328 Z M93.1588,23.50546 C92.7493,23.68088 91.75516,23.82718 90.90704,23.82718 C88.83084,23.82718 87.66114,22.97906 87.66114,21.48778 C87.66114,19.11898 90.23448,18.85592 93.1588,18.70962 L93.1588,23.50546 Z" id="Shape"></path>
            <path d="M113.59992,26.31274 L113.59992,15.52224 C113.59992,12.130026 111.43594,10.2 106.75714,10.2 C104.15454,10.2 102.13672,10.66788 100.46988,11.340468 L100.46988,26.31274 L104.44686,26.31274 L104.44686,13.76762 C104.97326,13.56294 105.8799,13.38752 106.81566,13.38752 C108.62866,13.38752 109.59368,14.35254 109.59368,15.9316 L109.59368,26.31274 L113.59992,26.31274 Z" id="Path"></path>
            <path d="M127.84968,25.58166 L126.5922,22.59896 C126.00728,23.03758 125.1593,23.30078 124.2528,23.30078 C122.35202,23.30078 120.74356,21.6632 120.74356,18.38804 C120.74356,15.11274 122.2935,13.47516 124.2528,13.47516 C125.1593,13.47516 126.00728,13.7091 126.5922,14.14772 L127.84968,11.281976 C126.8554,10.609402 125.5394,10.2 123.66788,10.2 C119.98336,10.2 116.62042,12.8026 116.62042,18.41716 C116.62042,24.03186 119.98336,26.66372 123.66788,26.66372 C125.5394,26.66372 126.82614,26.25422 127.84968,25.58166 Z" id="Path"></path>
            <path d="M143.4524,17.3645 C143.4524,13.0658 141.0248,10.2 136.66772,10.2 C132.07656,10.2 129.35692,13.5922 129.35692,18.41716 C129.35692,23.27152 132.10582,26.66372 137.31102,26.66372 C139.5919,26.66372 141.8144,26.19584 143.1304,25.52328 L141.9894,22.54044 C140.8792,23.12536 139.18254,23.53472 137.60348,23.53472 C135.2932,23.53472 133.59724,22.39428 133.24626,20.084 L143.3936,18.70962 C143.4524,18.24174 143.4524,17.80312 143.4524,17.3645 Z M139.5919,16.66268 L132.98306,17.56918 C133.04158,14.6156 134.50374,13.09506 136.57994,13.09506 C138.4222,13.09506 139.5919,14.29402 139.5919,16.66268 Z" id="Shape"></path>
        </g>
    </g>
</svg>