<?xml version="1.0" encoding="UTF-8"?>
<svg width="81px" height="80px" viewBox="0 0 81 80" version="1.1" xmlns="http://www.w3.org/2000/svg" xmlns:xlink="http://www.w3.org/1999/xlink">
    <title>A</title>
    <g id="Page-1" stroke="none" stroke-width="1" fill="none" fill-rule="evenodd">
        <g id="Desktop-HD-Copy-2" transform="translate(-189.000000, -38.000000)" fill="#131415" fill-rule="nonzero">
            <path d="M227.9,117.6 C228.2,117.6 228.4,117.4 228.5,117.1 C229.6,117.3 230.6,117.4 231.7,117.4 C233.9,117.4 236.4,116.9 239.2,116 C241.6,115.1 244,114.1 246.5,113.2 L246.7,113.5 C247.2,112.8 250.1,112.6 250.2,111.1 L250.6,111.3 C250.7,111.3 252,110.6 252,110.2 L251.9,109.8 C253.6,108.9 254.9,108.1 255.6,107.4 C256.4,107.7 256.8,106.3 257.2,106.3 L257.5,106.3 C257.4,105.6 257.7,105.1 258.2,104.7 C258.3125,104.6 258.417188,104.50625 258.514453,104.41875 L258.784375,104.175 C259.28125,103.725 259.525,103.5 259.6,103.5 L259.1,102.9 L259.9,102.4 C259.9,102 260.1,101 260.4,99.5 C261.3,99.6 263.3,98 263.8,97.9 C263.7,97.5 264.1,96.5 265,95 C265.9,93.4 266.4,92.3 266.4,91.8 C267.3,91.3 268.1,89 268.8,84.8 C269.3,81.4 269.6,78.7 269.6,76.7 C269.6,75.2 269.3,73.2 268.7,70.5 C268.2,67.8 267.9,66.1 267.9,65.6 C267.9,65.2 268,64.8 268.1,64.4 C267.6,64.5 267.3,64.2 267.3,63.5 C267.3,62.4 267,61.8 266.4,61.8 L266.8,61.6 C266.3,61.3 266,60.6 265.7,59.4 C265.4,58.2 264.8,57.5 263.8,57.4 C263.9,56.5 263.4,55.5 262.5,54.5 L260.4,52.1 L260.1,52.3 C259.8,52.2 258.9,50.2 258.2,50.2 C257.9,50.2 257.7,50.2 257.5,50.3 C255.8,47.6 253.2,45.6 249.6,44.2 L249.9,43.6 C245.3,41.9 241.9,40.6 239.6,39.5 C238.5,39.6 237.1,39.4 235.2,38.9 C233.1,38.3 231.7,38 230.8,38 C230.5,38 228.9,38.2 226.1,38.7 C223.4,39.1 221.9,39.4 221.7,39.5 C220.4,39.1 217.6,40.5 216.5,40.5 L215.8,40.4 L214.2,41.6 C213.5,42.1 213.1,42.5 213,42.8 L211.9,42.3 C210.6,42.8 209,43.9 207,45.6 C205,47.3 203.5,48.4 202.4,49 C201.6,50.4 200.3,51.4 198.5,52.1 C198.6,52.4 198.7,52.6 198.7,52.7 C198.7,53.2 197.3,53.8 197.3,54.2 C197.3,54.4 197.3,54.6 197.4,54.7 C197,55 196.3,56.4 195.8,56.4 L195.5,56.3 L196.1,56.6 L194.6,58.4 C194.2,58.5 194.4,59.8 193.7,59.8 C193.8,60.8 193.5,61.3 192.9,61.3 C193,62.1 192.8,62.6 192.4,62.9 L192.7,63.1 C192.7,63.6 191.9,63.9 191.9,64.2 C191.9,64.4 192,64.6 192.2,64.8 C191.4,66.2 190.9,67.8 190.6,69.6 C190.4,70.6 190.2,72.3 190.1,74.7 C189.8,75 189.7,75.4 189.7,75.7 C189.7,76 189.8,76.2 190.1,76.3 C189.5,81.6 190,85.7 191.6,88.7 C192.5,91.4 193.3,93.4 194,94.5 C193.7,95.2 194.9,96.4 194.9,96.8 C194.9,97.1 194.9,97.3 194.8,97.4 C195.9,98.2 197,99.4 198.1,101.1 C199.8,103.8 200.8,105.2 200.9,105.3 C201.5,105.4 202,105.7 202.5,106.2 C202.8,106.4 203.2,106.9 203.7,107.6 C203.6,108.2 203.9,108.6 204.7,108.7 C205.6,108.8 206,109.1 205.9,109.8 C206,109.7 206.2,109.7 206.4,109.7 C206.9,109.7 208.1,111.3 208.2,111.3 L208,111.7 L208.7,111.1 C209.1,112.2 210.7,112.8 211.9,113.5 C212.9,113.4 213.4,113.7 213.5,114.3 C214.3,114.2 214.8,114.4 215.1,114.8 L215.4,114.5 C215.8,114.5 216.3,115.3 216.4,115.3 C216.6,115.3 216.8,115.2 216.9,115.1 C218.4,115.8 220,116.4 221.8,116.7 C222.9,116.8 224.6,117 227,117.1 C227.3,117.4 227.6,117.6 227.9,117.6 Z M252.3,107.2 L251.9,106.9 L250.6,108.2 L250.4,108 L249.6,108.9 L249.3,108.7 C247.8,110.5 245.1,112 241.2,113.1 C238.1,114 235.1,114.6 232,114.8 L231.7,114.5 C230.8,114.9 229.7,115.1 228.5,115.1 C225.5,115.1 222.2,114.5 218.7,113.4 C215.2,112.2 212.4,110.7 210.1,108.9 L209.8,109.3 C209,108.4 208.6,107.7 208.5,107.4 L208.2,107.6 L206.3,106.3 L206.1,106.7 L205.4,105.6 L205.6,105.3 L204.6,104.8 L204.3,105 C204.2,104.3 203.6,103.5 202.5,102.6 C201.4,101.7 200.8,100.9 200.6,100.3 C200.647059,100.111765 200.317647,99.8128028 199.945247,99.4969062 L199.663098,99.258274 C199.336678,98.9795848 199.041176,98.7058824 199,98.5 L199.3,98.1 L198.3,97.7 L198.5,97.4 C196.6,95.7 195.2,93.1 194.1,89.6 C193.6,87.8 193.1,84.8 192.4,80.6 L192.7,79.7 C192.2,77.1 192.1,75.1 192.2,73.7 C193,70.6 193.8,67.5 194.7,64.4 C195.8,60.2 197.5,57.6 199.8,56.6 L199.6,56.3 C199.9,56 200.4,55.2 201.1,53.7 C201.6,52.6 202.3,51.9 203.2,51.8 L203.2,51.2 C203.9,50.71 204.534667,50.2744444 205.10273,49.8933333 L205.5733,49.58 C207.163,48.53 208.15,47.97 208.5,47.9 C209.8,46.7 211.6,45.6 213.7,44.7 L219.3,42.3 L219.5,41.5 C219.8,42.1 220.2,42.4 220.7,42.4 C221.4,42.4 222.8,41.7 223.5,41.8 C224.3,41.4 225.2,41.2 226.3,41.2 C227.6,41.2 230.9,41.8 232.4,41.8 C233.2,41.8 233.9,41.7 234.6,41.5 C236.5,41.9 237.4,42.1 237.3,42.1 L237.8,42.1 L237.8,42.3 L239.8,42.3 L239.6,42.6 C240.9,43.5 242.2,44 243.4,44 L244.1,43.9 C244.4,44.7 245.1,45.2 246.3,45.4 C247.6,45.5 248.4,45.8 248.8,46.2 L249.6,46.2 C249.5,47 250.9,48.3 253.6,50.2 C256.3,52 257.8,53.2 258,53.9 C258.9,54.4 259.7,55.4 260.4,56.7 C261.3,58.4 261.9,59.5 262.3,60 L262,60.2 C262.9,60.3 263.4,61.8 263.8,62.9 C264.4,65.2 265,66.8 265.5,67.9 C264.8,68.1 264.9,68.4 265.7,68.9 C266.3,71.8 266.6,74.2 266.5,76.3 L266.4,78.4 L267,78.9 C266.5,79.8 266.2,80.8 266.2,81.9 C266.2,86.8 265.2,90.6 263.3,93.1 L263.6,93.5 C263.3,93.8 262.5,95.3 261.1,98 C260.2,99.7 259,100.9 257.5,101.6 C257.2,101.8 257,102 257,102.1 L257,103.5 L257,103.5 L256.2,102.9 L254.9,104.8 L252.3,107.2 Z M232.754,60.476 L233.8,60 C233.6,59.8 233.3,59.3 232.9,58.5 C232.6,57.9 232.2,57.6 231.7,57.6 C231.4,57.9 231.2,58.3 231.2,58.6 C231.2,59.125 232.2125,59.81875 232.71875,60.428125 L232.754,60.476 Z M228.7,88.5 C229.5,88.5 231.7,87.9 232.5,87.9 C232.4,83.6 231.5,80 229.8,77.1 C229.7,75.4 228.8,72.3 227.2,67.7 C225.7,63 224.4,60.2 223.5,59.2 C222.8,59.4 221.5,59.5 219.6,59.4 C218,59.3 216.7,59.5 215.8,60 C214.7,62.7 213.7,66.2 212.7,70.5 L212.5,70.5 C212.1,72.2 211.5,73.9 210.6,75.6 L210.9,75.8 C210.8,76 210.5,77 209.8,78.7 C209.3,80 209,81 209,81.7 L209.1,82.1 C208.8,82.5 208.7,83.6 208.2,84 C208.1,85.1 208,85.7 208,85.7 C208,87.2 209,87.9 211,87.9 C212.3,87.9 213.2,87.1 213.6,85.5 C214.3,83 214.8,81.7 214.9,81.6 C218.7,81.4 222,81.3 224.8,81.3 C225.2,81.3 225.4,81.6 225.4,82.1 C225.4,83.3 225.7,83.9 226.2,84 C226,87 226.8,88.5 228.7,88.5 Z M219.614,67.362 L219.675,67.3125 C219.825,67.175 219.9,67 219.9,66.8 L219.9,66.5 L220.4,67.1 L219.614,67.362 Z M217.780716,77.0995617 L216.7,77.1 L216.6,75.3 C216.6,74.6 216.9,74 217.5,73.7 L217.3,73.4 C218.4,70.1 219,68.2 219,67.6 C219.2,67.5666667 219.366667,67.5111111 219.5,67.437037 L219.538,67.414 L220.9,67.9 C221.1,70.4 222.1,73.2 223.8,76.5 C219.616216,76.8891892 217.609788,77.0890431 217.780716,77.0995617 Z M248.8,90 L248.8,88.4 C248.5,88.1 248.2,87.9 247.9,87.9 C247.2,87.9 246.7,87.8 246.5,87.7 L246.4,81.1 C246.3,77.4 246.5,74.2 247,71.3 C246.7,70.6 245.8,70.2 244.1,70.2 C243.3,70.6 242.5,71 241.7,71.3 C240.7,71.8 240.2,72.4 240.3,73.2 L240.4,73.7 C241.1,73.9 241.6,74 241.9,74 C242.4,74 242.7,73.9 243,73.7 C243.3,74.6 243.5,75.7 243.5,76.8 L243.5,83.7 C243.2,86.9 242.3,88.6 240.9,88.7 L241.7,90 L248.8,90 Z" id="A"></path>
        </g>
    </g>
</svg>