<?xml version="1.0" encoding="UTF-8"?>
<svg width="51px" height="44px" viewBox="0 0 51 44" version="1.1" xmlns="http://www.w3.org/2000/svg" xmlns:xlink="http://www.w3.org/1999/xlink">
    <title>logomark</title>
    <g id="Page-4" stroke="none" stroke-width="1" fill="currentColor" fill-rule="evenodd">
        <g id="Desktop-HD" transform="translate(-90.000000, -309.000000)" fill="currentColor">
            <g id="logomark" transform="translate(90.000000, 309.000000)">
                <path d="M26.544528,23.51232 C27.0415843,23.51232 27.444528,23.9152637 27.444528,24.41232 L27.444,27.962 L49.909464,27.962784 C50.4065203,27.962784 50.809464,28.3657277 50.809464,28.862784 L50.809464,42.639408 C50.809464,43.1364643 50.4065203,43.539408 49.909464,43.539408 L24.264936,43.539408 C23.7678797,43.539408 23.364936,43.1364643 23.364936,42.639408 L23.364,39.088 L0.9,39.088944 C0.402943725,39.088944 -1.07963828e-13,38.6860003 -1.0658141e-13,38.188944 L-1.0658141e-13,24.41232 C-1.06642282e-13,23.9152637 0.402943725,23.51232 0.9,23.51232 L26.544528,23.51232 Z M26.544528,7.99360578e-15 C27.0415843,7.90229802e-15 27.444528,0.402943725 27.444528,0.9 L27.444,4.45 L49.909464,4.450464 C50.4065203,4.450464 50.809464,4.85340773 50.809464,5.350464 L50.809464,19.127088 C50.809464,19.6241443 50.4065203,20.027088 49.909464,20.027088 L24.264936,20.027088 C23.7678797,20.027088 23.364936,19.6241443 23.364936,19.127088 L23.364,15.576 L0.9,15.576624 C0.402943725,15.576624 -7.59894053e-14,15.1736803 -7.46069873e-14,14.676624 L-7.46069873e-14,0.9 C-7.46678591e-14,0.402943725 0.402943725,8.52900274e-15 0.9,7.99360578e-15 L26.544528,7.99360578e-15 Z" id="Combined-Shape"></path>
            </g>
        </g>
    </g>
</svg>