<?xml version="1.0" encoding="UTF-8"?>
<svg width="171px" height="80px" viewBox="0 0 171 80" version="1.1" xmlns="http://www.w3.org/2000/svg" xmlns:xlink="http://www.w3.org/1999/xlink">
    <title>Group 2</title>
    <g id="Page-1" stroke="none" stroke-width="1" fill="none" fill-rule="evenodd">
        <g id="Desktop-HD-Copy-2" transform="translate(-1078.000000, -86.000000)" fill="#131415" fill-rule="nonzero">
            <g id="Group-2" transform="translate(1078.250000, 86.600000)">
                <polygon id="Path" points="33.45 2.6 56.15 2.6 56.15 1.5 55.05 1.5 54.65 1.1 34.55 0.5"></polygon>
                <path d="M0.55,14.4 C0.85,11.4 0.95,9.9 0.95,9.9 C0.95,9.9 0.65,7.6 0.05,3 L0.05,8.2 C0.05,8.2 0.25,10.3 0.55,14.4 Z" id="Path"></path>
                <polygon id="Path" points="168.35 20.1 168.35 19.5 168.35 19.5 167.65 16.5 167.25 16.5 167.65 20.1"></polygon>
                <path d="M78.35,16.5 C80.05,16.9 81.45,17 82.45,16.9 L82.45,16.9 L82.85,20.6 L83.95,22.1 C84.05,23 84.45,25.6 85.35,30 C86.25,34 86.65,36.2 86.55,36.6 L86.55,36.6 L85.45,37.7 L86.05,38.1 L87.55,38.1 L88.75,44.3 C89.45,47.6 90.05,49.4 90.55,49.9 L90.55,49.9 L90.55,53.5 L91.65,55 L92.75,62.9 L86.05,63.4 C84.75,59.9 84.25,57.9 84.35,57.6 L84.35,57.6 L85.05,57.2 C80.55,56.5 78.35,56.1 78.35,56.1 C78.2516647,56.1140309 76.85,56.3137931 74.05,56.7 L74.05,56.7 L72.65,62.3 L70.05,63.4 L65.95,63.4 L64.95,60.8 L64.95,60.4 L65.95,59.3 C65.75,58.4 65.95,56.9 66.55,54.9 C67.25,52.8 67.85,51.4 68.55,50.5 L68.55,50.5 L68.55,49.5 L67.85,49 L68.95,48 L68.55,47.3 L70.45,43.3 L71.15,43.3 L71.55,43.7 L72.15,43.3 L71.15,41.8 L71.55,38.1 L72.65,36.6 L72.15,35.5 L72.15,34.1 L73.65,32.3 L74.05,33 L74.75,33 L75.15,32.3 L74.05,31.5 L73.25,29.8 C74.55,26.9 75.45,22.9 75.85,18 C76.05,17.7 76.85,17.2 78.35,16.5 Z M77.35,52.4 L76.65,52.4 L76.65,54.2 L77.35,54.2 L77.35,52.4 Z M80.35,35.5 L79.25,35.5 L77.75,39.2 L78.35,39.6 L77.35,46.2 L75.85,48 L73.65,48.4 L74.05,49 C74.75,48.9 75.75,49 76.95,49.3 C78.45,49.7 79.35,49.9 79.85,49.9 L79.85,49.9 L82.45,49.9 L82.45,49 L80.95,42.8 L82.85,39.6 L81.85,39.6 L81.85,40.3 L80.95,41.1 L80.35,38.5 L82.85,37.7 L81.35,37.7 L80.35,36.6 L80.35,35.5 Z M74.05,43.7 L74.75,45.4 L75.15,44.7 L74.05,43.7 Z M83.55,44.3 L82.85,44.3 L83.55,45.4 L83.55,44.3 Z M74.95,40.5 L74.05,40.5 L74.05,41.1 L74.95,41.1 L74.95,40.5 Z M76.05,37.9 L75.15,37.9 L75.15,38.5 L76.05,38.5 L76.05,37.9 Z M78.85,32.3 L78.35,32.3 L78.35,33.4 L78.85,33.4 L78.85,32.3 Z M82.85,31.5 L82.45,31.5 L81.35,32.3 L81.85,33 L82.45,33 L82.85,32.3 L82.85,31.5 Z" id="Combined-Shape"></path>
                <path d="M10.35,16.9 L24.65,17.6 C29.25,19.8 32.05,22.9 33.05,26.8 L33.05,26.8 L33.05,36 L31.95,37 L31.95,38.5 L26.15,43.3 C26.15,43.7210526 26.3804709,44.4789474 26.8414127,45.5811489 L26.8414127,45.5811489 L26.849,45.6 L26.15,45.6 L26.15,46.2 L27.05,46.2 L27.05,46.068 L27.125,46.2375 C27.775,47.7 28.75,49.65 30.05,52.1 C31.65,55.2 33.25,58.2 34.95,61.2 L34.95,61.2 L34.95,61.9 L33.45,63.4 L27.25,63.4 C25.85,62.1 23.75,57.8 21.05,50.5 L21.05,50.5 L21.65,49.9 L19.55,48 L19.15,44.3 L18.05,44.3 L18.05,43.7 L16.95,42.8 C16.65,43.4 16.15,44.3 15.45,45.4 L15.45,45.4 L15.95,45.8 L16.95,45.8 L16.55,46.2 L18.05,48.4 L16.95,50.5 C17.25,53.2 17.45,54.6 17.45,54.6 L17.45,54.6 L17.45,62.9 L13.35,63.8 C12.35,63.3 11.35,63.2 10.35,63.4 L10.35,63.4 L9.25,60.4 C9.80106383,55.4404255 10.1662064,52.4640109 10.29664,51.4219682 L10.29664,51.4219682 L10.3157263,51.2699363 C10.338411,51.0898144 10.35,51 10.35,51 C10.35,51 10.15,49.3 9.75,45.8 L9.75,45.8 L10.75,44.7 L9.75,43.7 L9.75096,27.1947136 C9.76632,27.11008 9.966,26.008 10.35,23.8 L10.35,23.8 L10.75,24.2 L11.45,24.2 L11.85,23.8 L11.85,23.1 L11.45,22.7 L10.35,22.7 L9.25,18 L10.35,16.9 Z M15.25,51.8 L14.45,51.8 L14.45,52.4 L15.25,52.4 L15.25,51.8 Z M25.75,49.9 L25.75,51.6 L26.85,51.6 L26.85,50.5 L26.15,50.5 L25.75,49.9 Z M12.25,48 L11.45,49.9 L12.95,51 L13.35,49 L12.25,48 Z M14.65,46.7 L13.95,46.7 L13.95,47.3 L14.65,47.3 L14.65,46.7 Z M13.35,45.4 L12.95,45.4 L13.35,46.2 L13.35,45.4 Z M23.45,40.9 L22.75,40.9 L22.75,41.8 L23.45,41.8 L23.45,40.9 Z M17.45,39.6 L16.95,39.6 L16.95,40.7 L18.05,40.7 L17.45,40.3 L17.45,39.6 Z M18.05,24.6 L17.45,25.3 C17.75,27.8 17.45,29.8 16.55,31.5 L16.55,31.5 L18.05,32.3 L17.45,39.6 L18.45,38.5 L20.15,38.5 L21.65,39.2 L23.15,37 L24.65,36.6 L25.35,34.1 L26.15,33 L26.15,31.5 L25.35,30.4 L24.25,26.4 C22.55,25.4 20.55,24.8 18.05,24.6 L18.05,24.6 Z M13.55,36.4 L12.95,36.4 L12.95,37 L13.55,37 L13.55,36.4 Z M29.85,33.4 L29.35,33.4 L30.85,34.5 L29.85,33.4 Z M13.35,32.3 L12.95,32.3 L13.35,33.4 L13.95,33 L13.35,32.3 Z M14.45,29.3 L12.25,29.3 L11.45,29.8 L11.85,30.4 L12.95,30.4 L14.45,29.3 Z M16.15,26.6 L15.45,26.6 L15.45,27.2 L16.15,27.2 L16.15,26.6 Z M14.65,18.9 L13.95,18.9 L13.95,19.5 L14.65,19.5 L14.65,18.9 Z M18.95,18.2 L18.05,18.2 L18.05,19.1 L18.95,19.1 L18.95,18.2 Z" id="Combined-Shape"></path>
                <path d="M59.35,16.9 L59.75,17.6 L60.15,23.8 L58.65,24.6 L48.85,24.2 L48.05,25.3 L48.45,35.5 L50.95,36.6 L53.15,35.5 C56.85,35.9 59.15,36.1 60.15,36 C60.65,40 60.85,42.1 60.85,42.2 L60.85,42.2 L53.95,43.3 L49.95,41.8 L48.45,42.8 L48.45,56.7 C50.35,56.1 53.75,55.8 58.65,55.7 L58.65,55.7 L60.85,57.2 C60.35,59.9 60.05,61.8 60.15,62.9 L60.15,62.9 L40.75,62.9 L40.75,42.2 L41.85,41.1 L38.55,36.6 L41.15,35.1 L40.75,33 L41.85,31.9 L40.75,30.8 L40.75,16.9 L59.35,16.9 Z M45.45,42.2 L44.75,42.2 L44.35,42.8 L45.45,43.7 L45.45,42.2 Z M54.85,39.8 L53.95,39.8 L53.95,40.7 L54.85,40.7 L54.85,39.8 Z M52.25,39 L51.45,39 L51.45,39.6 L52.25,39.6 L52.25,39 Z M42.25,37.7 L41.85,38.5 L42.65,38.5 L42.65,38.1 L42.25,37.7 Z M45.05,22.5 L44.35,22.5 L44.35,23.1 L45.05,23.1 L45.05,22.5 Z" id="Combined-Shape"></path>
                <polygon id="Path" points="0.95 20.1 1.55 19.5 1.55 19.1 0.05 17.6 0.55 20.1"></polygon>
                <path d="M101.95,17.6 L102.95,18.4 L105.15,17.6 L114.95,18.4 L115.85,20.1 L117.55,19.5 L119.05,22.1 L120.05,22.1 L123.55,26.8 L124.15,30.8 L125.65,33 L126.25,40.3 L124.15,40.3 L123.55,40.7 L123.55,41.1 L124.55,42.2 L125.25,41.8 L126.25,43.3 L125.65,44.7 L125.25,44.7 L124.55,45.4 L125.65,46.2 C124.75,49.7 123.95,52.3 123.05,54 C121.85,56.4 120.15,58.5 117.95,60.4 L117.95,60.4 L114.95,61.2 L114.35,60.8 L111.35,62.9 L110.65,62.9 L110.65,61.9 L111.35,62.3 L111.75,62.3 L112.35,61.9 L112.35,61.2 C109.95,60.5 108.35,60.3 107.65,60.4 L107.65,60.4 L107.05,60.8 L107.65,61.2 L108.15,61.2 L108.15,62.9 L98.95,63.4 L99.35,51.6 L99.95,51 L98.95,49.9 L98.45,39.2 L99.35,38.1 C98.7928571,35.5928571 98.4943878,34.2928571 98.4545918,34.1199344 L98.4545918,34.1199344 L98.45,34.1 L98.4507886,34.0841322 C98.4646777,33.8038017 98.6609091,29.8090909 98.95,22.1 L98.95,22.1 L99.95,22.1 L100.45,21.6 L100.45,21.2 L99.95,20.6 L98.95,20.6 L98.95,18 L99.95,17.6 L101.95,17.6 Z M104.45,60.4 L105.15,61.2 L106.15,61.2 L104.45,60.4 Z M102.75,59.9 L101.95,59.9 L101.95,60.8 L102.75,60.8 L102.75,59.9 Z M111.75,59.7 L110.795,59.7 L111.75,60.4 L111.75,59.7 Z M114.05,58.9 L113.25,58.9 L113.25,59.7 L114.05,59.7 L114.05,58.9 Z M114.95,57.6 L113.85,57.6 L114.35,59.3 L114.95,58.7 L114.95,57.6 Z M108.15,24.6 L106.65,25.3 C106.75,34.6 106.65,44.3 106.15,54.6 L106.15,54.6 L107.05,55.7 L109.15,55.7 L110.25,54.6 L110.65,55 L111.35,55 L116.45,50.5 L115.85,49.9 L116.85,48.4 L117.95,36.6 L119.05,35.5 L118.35,35.1 L117.95,35.1 L116.85,32.3 L117.95,30.4 L116.85,30.4 L116.45,29.8 L116.85,29.3 L115.35,27.8 L115.35,27.2 L108.15,24.6 Z M119.45,51.6 L118.35,51.6 L119.45,53.1 L119.45,51.6 Z M102.55,52.4 L101.95,52.4 L102.55,53.1 L102.55,52.4 Z M122.25,50.7 L121.55,50.7 L121.55,51.6 L122.25,51.6 L122.25,50.7 Z M100.65,44.5 L99.95,44.5 L99.95,45.4 L100.65,45.4 L100.65,44.5 Z M104.05,38.5 L103.65,38.5 L102.55,40.3 L104.05,38.5 Z M123.55,35.5 L122.65,35.5 L123.55,36.6 L124.15,36 L123.55,35.5 Z M102.75,30.2 L101.95,30.2 L101.95,30.8 L102.75,30.8 L102.75,30.2 Z M101.65,27.6 L101.05,27.6 L101.05,28.3 L101.65,28.3 L101.65,27.6 Z M111.55,20.4 L110.65,20.4 L110.65,21.2 L111.55,21.2 L111.55,20.4 Z M109.35,18.9 L108.75,18.9 L108.75,19.5 L109.35,19.5 L109.35,18.9 Z" id="Combined-Shape"></path>
                <path d="M130.35,17.6 C130.35,17.6 132.45,17.7 136.55,18 L136.55,18 L140.15,26.4 L140.15,27.8 L142.75,32.3 L142.75,34.5 L143.15,35.1 L143.65,35.1 L144.65,34.1 L144.65,33.4 L144.25,33 L145.75,31.5 L145.75,28.9 C147.45,26.2 148.85,22.7 149.85,18.4 L149.85,18.4 L150.85,17.6 L157.05,18 L157.55,18.4 C155.95,23.3 153.75,29 150.85,35.5 L150.85,35.5 L149.35,36.6 C148.55,40.4 147.75,43.1 146.85,44.7 L146.85,44.7 L146.85,62.9 C142.95,63.2 140.55,63.4 139.55,63.4 L139.55,63.4 L139.55,51.6 L140.65,49.9 L139.55,49 L139.55,43.3 C138.95,41.5 138.05,39.8 136.95,38.1 L136.95,38.1 L136.95,36.6 L134.85,34.5 L133.95,31.9 L134.85,30.8 C133.15,29.4 131.35,25.3 129.25,18.4 L129.25,18.4 L128.85,18 C129.85,17.7 130.35,17.6 130.35,17.6 Z M142.35,48.6 L141.65,48.6 L141.65,49.5 L142.35,49.5 L142.35,48.6 Z M139.55,35.1 L139.55,35.5 L140.65,36.6 L139.55,35.1 Z M139.35,30.2 L138.45,30.2 L138.45,30.8 L139.35,30.8 L139.35,30.2 Z M133.55,19.9 L132.95,19.9 L132.95,20.6 L133.55,20.6 L133.55,19.9 Z" id="Combined-Shape"></path>
                <polygon id="Path" points="168.35 22.7 168.75 22.1 168.75 21.6 168.35 21.6 167.65 21.2 167.25 21.6"></polygon>
                <polygon id="Path" points="0.95 24.2 0.95 22.1 0.55 22.1 0.55 24.2"></polygon>
                <polygon id="Path" points="168.55 24.2 168.55 23.4 167.65 23.4 167.65 24.2"></polygon>
                <path d="M0.95,26.8 L0.05,25.3 L0.522070313,30.1140625 C0.4796875,29.3921875 0.6,28.2875 0.95,26.8 Z" id="Path"></path>
                <polygon id="Path" points="168.75 27.8 168.75 25.7 167.65 25.7"></polygon>
                <path d="M2.05,77.7 L2.05,77.3 L1.55,77.3 L1.55,41.1 L0.55,39.6 L0.95,39.2 L1.55,39.2 C1.65,38.2 1.45,36.1 0.95,33 L0.55,33.4 C0.258955224,44.7507463 0.0620294052,50.548474 0.0505319803,50.9758022 L0.05,71.1 L0.95,73.2 L0.05,76.2 L0.95,77.3 L0.95,77.7 L2.05,77.7 Z" id="Path"></path>
                <polygon id="Path" points="167.95 34.5 167.95 33.8 167.25 33.8 167.25 34.5"></polygon>
                <polygon id="Path" points="167.65 39.2 167.65 37.7 167.25 36.6 167.25 39.2"></polygon>
                <polygon id="Path" points="167.95 41.1 167.95 40.5 167.25 40.5 167.25 41.1"></polygon>
                <polygon id="Path" points="164.75 42.2 164.75 40.7 165.45 40.7 165.45 41.8"></polygon>
                <polygon id="Path" points="166.75 42.8 165.85 42.8 165.85 42 166.75 42"></polygon>
                <path d="M167.25,50.499 L168.35,48 L167.65,45.8 C167.365789,47.2210526 167.26108,47.9240997 167.250846,47.9941682 L167.25,50.499 Z" id="Path"></path>
                <polygon id="Path" points="72.15 51 71.55 49.9 72.65 49.9 72.65 50.5"></polygon>
                <polygon id="Path" points="68.75 56.1 67.85 56.1 67.85 55.4 68.75 55.4"></polygon>
                <polygon id="Path" points="28.15 73.6 28.15 72.8 27.25 72.8 27.25 73.6"></polygon>
                <polygon id="Path" points="9.25 77.7 7.75 76.2 3.05 77.3 3.55 77.3 4.15 77.7"></polygon>
                <polygon id="Path" points="167.25 59.7 168.35 51.6 167.25 50.5"></polygon>
                <polygon id="Path" points="167.25 67.4 168.35 61.9 167.25 59.7"></polygon>
                <polygon id="Path" points="167.25 70 167.65 70 167.65 67.4 167.25 67.4"></polygon>
                <path d="M149.143432,1.056 L148.923689,1.5 L148.319393,0.5 C147.989777,0.4 147.550289,0.5 146.945993,0.7 C146.231826,1 145.792338,1.1 145.517658,1.1 L143.539963,1.1 L143.539963,1.1 L135.079822,0.5 C130.410264,0.2 128.048017,0.1 127.883209,4.26325641e-14 L127.663466,0.5 C113.874535,1.2 92.3945684,1.4 63.1686287,1.1 L61.9600372,2 L61.5205494,1.1 C56.9608633,1.4 53.3900248,1.2 50.9179058,0.5 L50.478418,1.5 L50.0938662,1.1 L38.2276952,1.1 L37.6233994,2 L36.7993598,0.5 L36.25,2 C39.0517348,2.4 40.4800702,2.6 40.4800702,2.6 L41.2620179,2.6000301 L41.2620179,2.6000301 L44.339041,2.6007625 C44.5920748,2.600865 44.8442622,2.600978 45.0956033,2.6011016 L46.5934934,2.6019712 C69.4054002,2.61728 85.0529244,2.724 93.4932879,3 L93.9327757,2 L94.2623916,2.6 L94.3015266,2.5992625 C94.3078429,2.599165 94.3149005,2.599058 94.3226994,2.5989416 L94.3783882,2.5981312 C95.3686703,2.584 102.632437,2.492 116.12691,2.4 C124.861731,2.3 132.168216,2.2 137.991429,2.3 C145.957146,2.4 153.208695,2.7 159.855948,3 L160.460244,2 L161.009603,3 C163.811338,2.7 165.239674,2.6 165.239674,2.6 C165.239674,2.6 166.283457,3 168.42596,3.7 L168.42596,12.9 L168.645704,12.4 L169.030256,12.4 L169.25,3.7 L168.645704,3.7 C168.096344,2.6 167.711793,1.7 167.492049,1.1 L166.448265,2.6 L166.063713,2 L166.063713,1.5 L160.460244,1.1 L160.460244,0.5 L159.41646,1.5 L158.812164,0.5 L158.427613,1.1 L155.955494,1.5 L155.406134,0.5 L154.801838,0.5 L153.373503,1.5 L152.000103,0.5 L151.395808,1.5 L151.176064,1.1 L150.352024,1.1 L149.418112,0.5 L149.319228,0.7 L149.637856,0.7 L149.637856,1.5 L149.143432,1.5 L149.143432,1.056 Z" id="Path"></path>
                <path d="M33.45,2.6 L33.05,2 L33.05,1.1 L23.65,0.5 L23.15,1.1 C13.15,0.7 6.35,1 2.65,2 L2.05,2.6 C9.06923077,2.88846154 12.6676036,2.99201183 12.934018,2.99955052 L20.15,3 C21.75,3 25.65,2.6 27.25,2.6 L33.45,2.6 Z" id="Path"></path>
                <path d="M9.25,77.7 L10.0760718,77.7 L11.5079296,78.8 L13.4905019,77.7 L13.7658592,77.3 L14.0962879,77.7 L35.9045835,78.3 L36.455298,77.3 C36.7306553,77.6 39.6494423,77.7 45.2116591,77.8 C46.9711921,77.845 49.0095242,77.86975 51.3266556,77.87425 L52.9127135,77.87425 C55.3537557,77.86975 58.0735971,77.845 61.0722377,77.8 C66.2627222,77.7340909 69.5393599,77.7116219 70.8706158,77.703962 L71.0013911,77.7032213 C71.02203,77.7031062 71.0420902,77.7029953 71.0615717,77.7028883 L71.2212735,77.7020285 C71.2372809,77.701944 71.2527089,77.701863 71.2675576,77.7017854 L71.3733531,77.702 L72.1966713,78.3 L72.7473858,77.3 L108.598902,77.7 L109.039474,76.8 L109.975688,77.7 L130.957912,77.3 L132.114413,78.3 L132.610056,77.3 L138.83313,77.7 L139.769345,76.2 L140.044702,76.8 C141.232975,77.3884615 144.3283,77.6883506 149.382633,77.6996672 L166.038428,77.7 L167.25,76.2 C165.212356,76.3 162.458784,76.2 158.989282,76 C155.079209,75.9 152.325636,75.8 150.728564,75.8 C150.728564,75.8 147.91992,76.1 142.24756,76.8 L140.870774,75.1 L140.264988,76.2 L134.372342,75.8 L133.766556,76.8 L133.54627,76.2 L19.4932903,76.2 L18.9425758,77.3 L18.5570756,76.8 L9.85578599,76.2 L9.25,77.7 Z" id="Path"></path>
            </g>
        </g>
    </g>
</svg>