<?xml version="1.0" encoding="UTF-8"?>
<svg width="54px" height="79px" viewBox="0 0 54 79" version="1.1" xmlns="http://www.w3.org/2000/svg" xmlns:xlink="http://www.w3.org/1999/xlink">
    <title>S</title>
    <g id="Page-1" stroke="none" stroke-width="1" fill="none" fill-rule="evenodd">
        <g id="Desktop-HD-Copy-2" transform="translate(-359.000000, -40.000000)" fill="#131415" fill-rule="nonzero">
            <path d="M389.4,118.8 C399.1,110.5 406.5,104.3 411.5,100.3 L411.5,98.1 C412.2,97.6 412.5,97 412.5,96.3 C412.5,95.4 411.6,93.1 411.7,92.2 C410.5,90.8 407.6,89.7 403,89 C398.2,88.3 395.2,87.5 394.1,86.5 C393.9,85.6 393.2,84.4 391.9,82.8 C390.8,81.4 390.2,80.1 390.2,78.8 C390.2,76.3 390.9,73.5 392.3,70.5 C393.7,67.5 394.4,65.5 394.5,64.6 C396.6,62.7 397.6,58.1 397.7,50.8 L397.7,49.7 C396.7,48.8 396,47.5 395.7,45.6 C394.8,44.4 393.5,42.7 392.2,42.8 C389.7,41.4 386.9,40.7 383.7,40.7 C380.9,40.7 378.5,41.3 376.5,42.4 C374.7,42.5 373,43.9 371.3,46.6 C369.7,49.2 368.9,51.5 368.9,53.4 C368.9,55.5 369.8,58.4 371.7,61.9 C371.8,62.8 373.7,64.6 373.8,65.5 C373.9,65.9 374.4,66.9 375.3,68.5 C376.3,70.1 376.8,71 376.8,71.2 C376.8,71.6 376.9,71.9 377.2,72.2 C377.7,74 378,74.9 378,74.9 C378.9,76.4 379.4,78 379.4,79.7 C379.4,80.6 379.3,81.4 379,82.2 C377,84.3 376,86.3 376,88.3 C376,89 376.2,89.8 376.5,90.5 C374.1,91.6 371,93.4 367.3,95.9 C363.2,98.6 360.4,100.8 359.1,102.3 L359.1,103.3 C359.6,104.1 359.4,106.7 359.9,107.5 C361,107.6 361.3,109.2 361.7,110.3 L376.8,115.2 C380.5,116.2 382.6,116.8 382.9,117 C383.6,117.1 384.7,117.5 386.2,118 C387.5,118.5 388.6,118.8 389.4,118.8 Z M389.7,45.9 C389.3,45.9 389,45.7 388.8,45.2 L389.6,44.6 C390.1,44.6 390.4,44.8 390.4,45.1 C390.4,45.3 390.3,45.5 390.2,45.6 L389.7,45.9 Z M383,48.5 C382.2,48.5 381.4,48.4 380.7,48.1 L380.7,47.9 C380.7,47.6 381.5,47.4 381.5,47.1 C381,47 380.7,46.9 380.7,46.9 C380.4,46.9 379.2,47.1 378.8,47.1 C378.5,47 378.3,46.7 378.2,46.3 C378.5,46 378.8,45.9 379.2,45.9 C379.7,45.9 380.8,46.3 381.2,46.3 C381.7,46.3 382.1,46.1 382.4,45.7 C383.9,45.6 385.3,45.3 386.6,44.6 C387.5,44.9 387.9,45.2 387.9,45.7 C387.9,46 387.6,46.3 387,46.6 C386.5,46.5 386.2,46.6 386.1,46.7 C386,47.2 386.9,47.1 386.9,47.5 L386.9,47.7 C385.6,48.2 384.3,48.5 383,48.5 Z M372.5,56.7 C372.4,55.6 372.3,54.9 372.3,54.7 C372.3,54 372.5,53.5 372.8,53.2 C374.2,53.8 375,54.9 375.2,56.6 C374.8,57.4 374.3,57.8 373.7,57.8 C373.3,57.8 373.4,58 372.5,56.7 Z M379.6,89.8 C378.9,89.5 378.6,88.9 378.6,88 C378.6,87.6 378.7,87.2 378.8,86.7 L379.4,85.8 C379.6,85.5 379.9,85.3 380.2,85.3 C380.6,86.2 380.8,87.2 380.8,88.3 L380.7,89.1 C380.2,89.3 379.8,89.5 379.6,89.8 Z M387.6,108.8 C384.7,107.5 380.5,106.1 375.1,104.6 C369.3,103 365,102.1 362.3,101.9 C362.7,101 363.8,100.1 365.6,99.3 C366.4,99 368.4,97.6 371.7,95.2 C374.2,93.3 376.3,92.4 378.2,92.4 L379.7,94 C379,95.1 378.6,96.2 378.6,97.2 C378.6,98.5 379.5,99.5 381.3,100.3 C382.8,100.9 384.2,101.2 385.6,101.1 L387.3,101 C388.2,100.6 388.9,100.4 389.4,100.3 C391.5,98.5 392.5,97.1 392.5,96 C392.5,95.8 392.1,94.7 391.4,92.8 C392.1,92.7 392.8,92.1 393.5,91 C394.2,89.9 394.9,89.3 395.5,89.3 L408.5,92.2 C408.2,93 405,95.8 398.9,100.6 C393.2,105 389.4,107.7 387.6,108.8 Z M390,111.3 C390.5,111.4 390.8,111.2 391,110.9 L391.4,111.1 C391.4,110.8 392.2,110.1 392.2,109.7 C392.2,109.5 392.1,109.3 391.8,109.2 L392.5,109.3 C392.45,109 392.45,108.75 392.5,108.5625 L392.515,108.518 L392.69273,108.7262 C393.187654,109.311111 393.533333,109.755556 393.8,110.2 C393.9,109.3 394.2,108.8 394.8,108.8 L394.8,107.8 C395.7,107.7 396.2,107.1 396.5,106.2 L396.1,105.8 L396.9,106 C397,105.7 397.2,105.3 397.5,105 L397.3,104.2 C398.2,104.2 399,102.5 399.8,102.4 L400,102.6 C399.5,102.4 399.2,102.7 399.2,103.6 C399.2,103.9 399.3,104.1 399.4,104.2 C400,103.6 400.5,103.2 401,103 L400.7,102.3 L401.4,102.4 L401.6,101.5 L402.4,102.3 C403.1,101.8 403.6,101.5 403.9,101.5 C403.9,101.2 403.8,101.1 403.6,101 L403.362963,100.880384 C403.120988,100.755556 403,100.677778 403,100.6 C403,100.7 402.9,100.8 402.8,100.8 C402.7,100.8 402.6,100.7 402.6,100.6 C402.7,100.5 402.9,100.5 403.1,100.5 C403.8,100.5 404.4,100.8 404.8,101.5 C405.1,101.4 405.2,101.1 405.2,100.8 C405.2,100.6 405.1,100.4 404.9,100.3 C405.5,100.4 405.8,100.3 405.8,99.9 C405.8,99.8 405,99.6 404.9,99.5 L404.8,99.5 C404.5,99.5 404.2,99.6 403.9,99.9 L403.8,99.7 C404.1,99.2 404.3,99 404.6,99 C404.9,99 405.1,99.1 405.2,99.3 C405.4,99.4 405.6,99.2 405.9,98.9 C406,98.9 406.1,99 406.3,99.3 C406.8,99.2 407,99 407,98.7 L406.99998,98.5131284 L406.99998,98.5131284 L406.99945,98.1824954 C406.996886,97.4775087 406.982353,97.2352941 406.9,97.4 L406.7,97.1 L407.3,96.5 C407.5,96.7 407.7,96.8 407.8,96.7 C407.9,96.6 407.9,96.5 407.9,96.2 L407.9,95.7 L408.5,96.1 C408.425,95.425 408.63125,95.03125 409.034375,94.834375 L409.092,94.81 L409.069907,94.8222222 C408.6,95.1416667 409.183333,96.0166667 408.1,97.1 C408.1,97.2 408.3,97.4 408.7,97.5 L408.9,96.9 L409.7,97.4 L409.9,96.5 L409.1,96.4 C409.6,95.7 410,95.3 410.5,95.1 C410.2,95.4 410.1,95.7 410.1,96 L410.1,96.1 L410.5,96.5 L410.8,96.1 C410.8,97.1 410,98.3 408.4,99.7 C407.2,100.6 406,101.6 404.8,102.6 C404.7,101.9 404.4,101.6 403.9,101.6 C404,101.9 404.1,102.2 404.1,102.4 C404.1,103.1 403.6,103.8 402.5,104.4 C401.4,104.9 400.8,105.5 400.7,106.2 C399.5,106.7 398,107.8 396.3,109.5 C394.6,111.2 393.3,112.4 392.2,112.9 C391.8,113.6 391.3,114.4 390.6,114.4 C390.5,114 390.4,113.8 390.4,113.8 C390.4,113.4 390.8,112.5 390.8,112.1 L390.2,111.9 L390.005,112.192 L390.06875,112.079167 C390.297917,111.651389 390.275,111.391667 390,111.3 Z M383.1,96.7 L382.8,96.7 C382.5,96.7 382,96.3 381.5,95.5 C381.6,95.2 381.8,95 382.1,95 C382.4,95 382.8,95.2 383.5,95.7 L383.5,95.8 C383.6,96.1 383.4,96.4 383.1,96.7 Z M407.7,98.1 L407.9,97.5 L407.3,97.4 L407.7,98.1 Z M405.6,98.3 L405.5,98.1 C405.5,98 405.9,97.8 405.9,97.7 L405.9,97.5 L406.3,97.5 C406.216667,97.5 406.202778,97.5694444 406.200463,97.650463 L406.2,97.7 C406.2,97.8 406.2,97.9 406.3,97.9 L405.6,98.3 Z M403.2,102.9 L403.4,102.4 L403.1,102.2 C402.8,102.2 402.7,102.3 402.7,102.6 L402.8,102.9 L403.2,102.9 Z M401,104.2 L401.6,102.9 L401,103.3 L401,104.2 Z M362.3,107 C362.1,107 361.8,106.9 361.4,106.8 C360.9,106.2 360.7,105.6 360.7,105.1 C360.7,104.4 360.9,104.1 361.2,104.1 C361.3,104.1 361.6,104.2 361.9,104.4 L362.3,103.6 L362.8,103.8 C362.5,104.1 362.3,104.4 362.3,104.9 C362.3,105.3 362.6,106.3 362.6,106.7 C362.6,106.9 362.5,107 362.3,107 Z M397.9,106.2 C398.3,106.2 398.8,105.5 399.2,105.6 L398,105.4 L398,105.2 L398.4,105 L398.4,104.2 L398.2,104.2 C397.8,104.2 398,105.7 397.5,105.8 C397.6,106.1 397.8,106.2 397.9,106.2 Z M399.8,104.8 L399.8,104.5 L399.4,104.5 L399.4,104.8 L399.8,104.8 Z M394.1,107.2 L395.3,105.8 L395.5,106.2 C395,106.2 394.7,106.4 394.8,106.7 L394.8,106.8 L394.1,107.2 Z M396.5,107.8 L397.1,106.4 L395.9,107.4 L396.5,107.8 Z M393.8,108.8 L393.1,108.3 C392.94,108.3 392.78,108.364 392.62,108.4408 L392.525,108.488 L392.529167,108.474016 C392.584722,108.335417 392.675,108.241667 392.8,108.2 L393.334,107.577 L393.3368,107.6224 C393.388,107.856 393.9,108.32 393.9,108.4 C393.9,108.5 393.9,108.7 393.8,108.8 Z M373.7,109.2 L373.8,108.9 L373.9,108.7 C373.9,108.4 373.8,108.1 373.5,107.9 C373.3,108.2 373.1,108.4 372.8,108.4 L372.5,108.3 L372.5,108.8 C373.1,108.7 373.5,108.9 373.7,109.2 Z M395.5,108.5 L395.7,107.9 L395.5,107.9 C395.2,107.9 395.1,108.1 395.1,108.5 L395.5,108.5 Z M392,111.5 L392.4,111.3 C392.3,110.6 392.5,110 392.8,109.7 L392.2,110.2 L392,111.5 Z M373.016,107.995 L373.3,107.9 L373.7,107.5 C374.2,107.7 374.7,108.2 375.1,108.9 C375.6,109.9 375.9,110.5 376.2,110.7 L376.7,109.8 C376.7,109.5 376.5,109.3 376.2,109.2 L376.5,108.9 L375.6,108.3 L375.8,107.9 L376.2,107.9 C376.6,109 377,110.4 378.1,110.3 L378.4,110.3 C378.7,110.4 379.1,111.5 379.6,111.5 L379.7,111.5 L380.2,111.1 C379.2,110.2 378.5,109.5 378.2,108.8 C378.5,109 378.7,109 378.9,108.9 C379.2,108.6 379.4,108.5 379.5,108.5 L379.7,108.5 C379.8,109.4 379.8,110.7 380.7,110.7 L381,109.2 C381.3,109.3 381.7,109.4 382,109.3 L382,109.4 C382,109.9 381.3,111 381.3,111.5 C381.3,111.7 381.4,111.8 381.7,111.9 C382.6,110.6 383.3,109.9 383.9,109.9 L384.3,110.2 L383.5,110.9 C383.6,111.2 383.7,111.3 383.9,111.3 C384.2,111.3 384.4,111.1 384.7,110.7 L385.3,111.5 C385.7,111.4 386,111.2 386.1,110.7 C386.3,111.1 386.6,111.3 387,111.3 C387.3,111.3 387.5,111.2 387.6,111.1 C388.4,111.4 388.5,113.5 389,113.8 L389,114.3 C388.9,114.4 388.7,114.5 388.5,114.5 C388,114.5 387.2,113.9 386.9,113.8 C386.8,113.4 386.7,113.2 386.7,113.2 C386.7,113.1 387,112.6 387.5,111.7 C387.4,111.4 387.1,111.3 386.7,111.3 C386.1,111.3 385.8,111.7 385.8,112.6 C385.8,113.1 385.8,113.6 385.9,114.1 L385.1,113.1 L384.2,113.6 C384,113.6 383.8,113.5 383.7,113.3 L383.5,112.7 C382.8,112.8 381.3,112.7 379,112.3 C376.7,111.9 375.3,111.5 374.7,111.1 L374.2,110.2 L373.5,110.5 C373.2,110 372.8,109.7 372.2,109.7 C370.3,109.7 369.6,108.4 368.8,108.4 C368.4,108.4 368.1,108.6 367.8,108.9 C365.5,108.2 364.3,107.7 364,107.5 C364,107.44 364.036,107.416 364.0864,107.3848 L364.129,107.357 L364.173621,107.369245 C364.307958,107.405882 364.576471,107.452941 365,107.5 C365.3,107.6 365.4,107.4 365.4,106.9 C365.4,106.6 365.2,106.2 364.8,105.8 C364.7,106.3 364.5,106.5 364.2,106.4 C364.12,106 364.104,105.792 364.1008,105.7248 L364.1,105.7 L364.1,105.7 C364.1,105 364.5,104.7 365.2,104.7 C365.5,104.7 365.7,104.7 366,104.8 C366,105.1 365.8,105.5 365.5,106 C365.5,106.2 365.7,106.4 366,106.5 L366.6,105.8 L366.9,105.8 L367,106 C367,106.3 366.5,106.7 366.5,107 L366.6,107.2 L367.4,107.2 C367.5,107.1 367.5,107.1 367.6,107.1 C367.6,107.4 367.6,107.6 367.7,107.6 L367.9,107.5 L368.2,106.5 C368.5,106.8 368.7,106.9 369,106.7 C369.4,106.4 369.7,106.3 369.8,106.3 C369.9,106.3 370.1,106.4 370.3,106.5 C370.3,107.4 370.5,107.9 370.9,108.2 L371.5,107.8 L371.3,107.4 C371.7,107.3 371.9,107.2 371.9,107.2 L372.3,107.2 L372.1,107.5 C372.7,107.757143 373.006122,107.940816 373.018367,107.988047 L373.016,107.995 Z" id="S"></path>
        </g>
    </g>
</svg>