<?xml version="1.0" encoding="UTF-8"?>
<svg width="68px" height="67px" viewBox="0 0 68 67" version="1.1" xmlns="http://www.w3.org/2000/svg" xmlns:xlink="http://www.w3.org/1999/xlink">
    <title>Combined Shape</title>
    <g id="Page-1" stroke="none" stroke-width="1" fill="none" fill-rule="evenodd">
        <g id="Desktop-HD-Copy-2" transform="translate(-1556.000000, -121.000000)" fill="#131415" fill-rule="nonzero">
            <path d="M1571.75232,121 C1572.49914,121.602544 1575.33068,123.256337 1580.24694,126.076007 L1580.98128,126.496978 C1581.48076,126.783191 1582.00008,127.080555 1582.53924,127.389175 C1586.99099,129.806701 1590.07296,132.742268 1591.61395,136.195876 C1595.46642,139.271746 1597.96451,141.588767 1599.24929,142.862369 L1599.49011,143.103093 C1602.05843,145.865979 1603.42819,148.801546 1603.59942,152.082474 L1603.59942,152.082474 L1621.92005,149.319588 C1623.2718,164.921414 1623.9648,174.676874 1623.99905,178.585968 L1623.99905,178.585968 L1624,179.026996 C1623.99816,179.371135 1623.98972,179.65681 1623.9747,179.884021 C1604.96918,183.164948 1583.56657,185.927835 1559.42442,188 L1559.42442,188 L1556,161.925258 C1557.88343,161.061856 1560.79419,160.371134 1564.90349,159.680412 C1569.18401,158.81701 1572.09477,158.126289 1573.9782,157.435567 C1573.12209,155.881443 1572.09477,155.190722 1571.23866,155.363402 C1570.21134,154.845361 1569.18401,153.809278 1568.15669,152.255155 C1566.6157,150.010309 1565.75959,148.801546 1565.24593,148.283505 C1565.75959,146.03866 1561.47907,142.239691 1561.99273,139.994845 C1559.76686,138.786082 1558.73953,137.231959 1558.73953,135.505155 C1558.73953,134.296392 1559.76686,131.360825 1559.76686,129.806701 C1559.76686,128.597938 1559.2532,127.216495 1558.22587,126.007732 C1558.39709,125.14433 1559.08198,124.798969 1559.93808,124.971649 C1561.30785,125.14433 1561.99273,125.31701 1561.99273,125.31701 L1561.99273,125.31701 L1573.69226,133.239588 L1573.5248,133.101443 C1572.99881,132.631753 1572.77965,132.051546 1572.77965,131.360825 C1572.77965,130.497423 1573.29331,128.597938 1573.29331,127.907216 C1573.29331,126.698454 1572.43721,125.662371 1570.55378,124.971649 L1570.55378,124.971649 Z M1601.55193,167 L1595.52819,172.354545 C1593.63501,173.909091 1591.74184,174.6 1589.50445,174.6 C1588.1276,174.6 1584.34125,173.563636 1578.31751,171.318182 C1574.87537,174.427273 1569.71217,179.263636 1563,186 L1563,186 L1621,178.227273 L1611.0178,173.218182 C1607.40356,171.145455 1604.13353,169.072727 1601.55193,167 L1601.55193,167 Z M1569.62667,169 C1570.32,169.347826 1570.14667,170.043478 1569.10667,171.086957 C1568.43259,171.086957 1567.96823,170.98175 1567.71358,170.771337 L1567.71358,170.771337 L1567.6264,170.685217 L1567.89333,171.086957 C1568.06667,171.434783 1567.89333,171.782609 1567.54667,172.130435 C1566.68,172.478261 1565.29333,172.130435 1563.73333,171.086957 L1563.73333,171.086957 L1565.64,173.347826 L1564.77333,174.391304 C1564.42667,174.043478 1563.73333,173.695652 1562.52,173.347826 L1562.52,173.347826 L1564.77333,174.913043 L1563.73333,176.130435 C1563.04,175.782609 1562.69333,175.608696 1562.52,175.608696 L1562.52,175.608696 L1563.73333,176.826087 C1562.69333,177.695652 1562.17333,178.913043 1562,180.478261 L1562,180.478261 L1562,185 C1565.64,181.695652 1569.97333,176.826087 1575,170.565217 L1575,170.565217 Z M1620.23636,153 L1604,166.313869 L1623,177 C1622.96641,176.931873 1622.93283,176.724655 1622.8967,176.377058 L1622.8967,176.377058 L1622.86506,176.044708 C1622.71932,174.394161 1622.525,170.649635 1622.13636,164.737226 C1621.96364,159.656934 1621.27273,155.627737 1620.23636,153 L1620.23636,153 Z M1575.01827,141 C1574.84835,142.703297 1575.86784,143.554945 1577.90682,143.725275 C1579.94581,143.725275 1580.9653,144.236264 1580.9653,145.258242 C1579.09623,146.10989 1577.90682,146.450549 1577.73691,146.450549 C1578.92632,147.813187 1583.51402,146.961538 1584.87335,148.494505 C1584.3636,149.005495 1583.17419,149.516484 1582.66445,150.197802 L1582.66445,150.197802 L1586.74241,151.730769 L1584.87335,153.774725 C1586.06275,153.604396 1587.93182,153.945055 1590.14071,154.456044 C1590.31063,155.307692 1590.14071,155.818681 1589.29114,155.989011 C1588.10173,156.159341 1587.59199,156.32967 1587.42207,156.5 L1587.42207,156.5 L1590.65046,156.5 C1589.63097,158.714286 1587.25216,160.758242 1583.68394,162.461538 L1583.68394,162.461538 L1587.93182,162.972527 C1588.44156,164.164835 1587.08224,164.505495 1586.40258,165.186813 L1586.40258,165.186813 L1588.61148,165.186813 C1588.95131,165.357143 1589.12122,165.527473 1589.12122,166.038462 C1588.95131,166.89011 1588.95131,167.230769 1589.12122,167.401099 L1589.12122,167.401099 L1590.14071,167.401099 C1590.31063,169.274725 1589.80088,170.126374 1588.61148,170.126374 C1587.93182,170.126374 1586.74241,169.615385 1585.04326,168.593407 C1583.34411,167.401099 1582.1547,166.89011 1581.64496,166.89011 C1581.30513,166.89011 1581.13521,167.06044 1580.9653,167.401099 L1580.9653,167.401099 L1578.41657,165.186813 L1578.41657,166.208791 C1577.90682,167.06044 1577.56699,167.230769 1577.05725,167.06044 C1576.5475,166.71978 1576.20767,166.379121 1575.69793,166.208791 L1575.69793,166.208791 L1575.01827,167.741758 C1581.81487,170.467033 1587.25216,171.82967 1591.33012,172 L1591.33012,172 L1604.41359,161.269231 C1609.68096,157.010989 1614.09875,153.774725 1618,151.734176 L1618,151.734176 L1617.77648,151.841826 C1616.0237,152.65583 1612.86502,153.456283 1608.15172,153.945055 C1603.3941,154.456044 1600.16571,155.137363 1598.29664,155.989011 C1595.40808,157.521978 1594.21868,160.417582 1594.38859,164.675824 C1593.53902,166.549451 1592.51953,167.401099 1591.50004,167.401099 C1590.99029,167.401099 1590.48054,167.06044 1590.14071,166.208791 C1589.9708,165.016484 1590.65046,163.653846 1592.1797,161.950549 L1592.1797,161.950549 L1588.61148,161.269231 C1588.78139,160.928571 1589.63097,160.247253 1591.33012,159.225275 C1593.02927,158.203297 1593.70893,157.010989 1593.19919,155.478022 C1590.39559,150.793956 1586.02145,146.10989 1580.07678,141.294627 L1580.07678,141.294627 L1579.94071,141.185659 L1579.93951,141.271266 C1579.90595,141.960996 1579.73813,142.381563 1579.43606,142.532967 C1577.05725,142.532967 1575.52801,142.021978 1575.01827,141 Z M1569,148 C1572.77612,149.941176 1575.73134,151 1577.86567,151 C1578.68657,151 1579.34328,150.823529 1580,150.647059 L1580,150.647059 L1578.52239,149.058824 C1575.89552,150.117647 1572.77612,149.764706 1569,148 Z M1572,123 C1573.36786,125.221519 1575.93258,127.443038 1579.69419,129.664557 C1583.62677,131.886076 1586.02052,133.765823 1587.21739,135.303797 C1586.36248,136.158228 1586.02052,136.841772 1586.1915,137.012658 C1587.73034,136.5 1588.92721,137.35443 1589.9531,139.234177 C1590.97899,141.113924 1592.17587,141.968354 1593.7147,141.797468 C1593.88569,142.822785 1593.37274,143.506329 1592.17587,143.677215 C1590.63703,144.018987 1589.61114,144.360759 1589.26917,144.531646 C1591.14998,145.386076 1592.34685,145.727848 1592.68881,145.727848 C1592.68881,144.702532 1592.85979,144.189873 1593.03078,144.189873 C1593.88569,144.702532 1597.30532,144.531646 1597.98925,146.06962 C1598.16023,148.291139 1597.30532,149.487342 1595.25354,149.487342 C1594.7406,149.487342 1594.22765,149.316456 1593.7147,148.803797 C1594.22765,149.658228 1594.91158,150 1595.59551,150 C1596.45042,150 1598.33122,149.14557 1598.84416,149.14557 C1599.3045,149.14557 1599.66568,149.343757 1599.98111,149.713453 L1599.98111,149.713453 L1600,149.740253 L1599.94449,149.438905 C1599.1078,145.358257 1595.23366,141.185458 1588.41426,137.012658 C1587.04641,134.107595 1584.65266,131.373418 1581.23302,128.981013 C1578.15535,127.101266 1575.07767,125.050633 1572,123 Z M1565,142 C1566,143.6875 1567.66667,145 1570,145.9375 C1572,146.5 1574,147.25 1576,148 C1575.16667,146.3125 1573.66667,145 1571.16667,144.25 C1567.5,143.125 1565.5,142.375 1565,142 Z M1561,134 C1562.3913,137.914894 1566.3913,140.468085 1573,142 C1571.78261,140.808511 1569.86957,139.446809 1567.26087,137.914894 C1563.95652,136.042553 1561.86957,134.680851 1561,134 Z M1560,127 C1560.1705,129.162407 1561.53453,131.158476 1564.09207,132.821866 C1566.13811,134.152578 1568.18414,135.48329 1570.23018,136.647664 C1571.08269,137.146681 1572.61722,137.479359 1575.17477,137.812037 C1575.31904,137.837628 1575.46028,137.866171 1575.59858,137.897667 L1575.59858,137.897667 L1576,138 Z M1574,130 C1575,131.411765 1576.5,132.647059 1578.33333,133.529412 C1580.15942,134.496164 1581.42974,135.201379 1582.18189,135.605258 L1582.18189,135.605258 L1582.47262,135.759784 C1582.77505,135.91827 1582.94928,136 1583,136 L1583,136 L1583,134.941176 C1581,134.058824 1578,132.294118 1574,130 Z" id="Combined-Shape"></path>
        </g>
    </g>
</svg>