<?xml version="1.0" encoding="UTF-8"?>
<svg width="67px" height="37px" viewBox="0 0 67 37" version="1.1" xmlns="http://www.w3.org/2000/svg" xmlns:xlink="http://www.w3.org/1999/xlink">
    <title>wordmark-dark</title>
    <g id="Page-5" stroke="none" stroke-width="1" fill="none" fill-rule="evenodd">
        <g id="Register----help" transform="translate(-24.000000, -24.000000)" fill="#212B36" fill-rule="nonzero">
            <g id="wordmark-dark" transform="translate(24.000000, 24.000000)">
                <path d="M63.0944,16.2592 C64.7072,16.2592 66.0608,14.8768 66.0608,13.2928 C66.0608,11.68 64.7072,10.3552 63.0944,10.3552 C61.4816,10.3552 60.1568,11.68 60.1568,13.2928 C60.1568,14.8768 61.4816,16.2592 63.0944,16.2592 Z" id="."></path>
                <path d="M6.9696,29 L6.9696,18.3728 L10.08,18.3728 L10.08,14.6864 L6.9696,14.6864 L6.9696,13.592 C6.9696,12.008 8.064,11.6624 8.8416,11.6624 C9.5328,11.6624 9.9072,11.7488 10.1376,11.8064 L10.1376,8.2352 C9.7344,8.0336 8.9568,7.9184 8.064,7.9184 C4.5792,7.9184 2.592,10.1648 2.592,13.448 L2.592,14.6864 L0.3168,14.6864 L0.3168,18.3728 L2.592,18.3728 L2.592,29 L6.9696,29 Z M6.9696,29 L6.9696,18.3728 L12.2112,18.3728 L12.2112,29 L16.6176,29 L16.6176,8.1488 L12.2112,8.1488 L12.2112,14.6864 L6.9696,14.6864 L6.9696,13.448 C6.9696,12.008 8.0928,11.6624 8.8416,11.6624 C9.4752,11.6624 9.8784,11.7488 10.08,11.8064 L10.08,8.2352 C9.6768,8.0336 8.784,7.9184 8.064,7.9184 C4.5792,7.9184 2.592,10.1648 2.592,13.448 L2.592,14.6864 L0.3168,14.6864 L0.3168,18.3728 L2.592,18.3728 L2.592,29 L6.9696,29 Z M25.6512,29.432 C29.9424,29.432 33.2544,26.264 33.2544,21.8288 C33.2544,17.3936 29.9424,14.2544 25.6512,14.2544 C21.3888,14.2544 18.048,17.3936 18.048,21.8288 C18.048,26.264 21.3888,29.432 25.6512,29.432 Z M25.6512,25.4 C24.0096,25.4 22.4256,24.2192 22.4256,21.8288 C22.4256,19.4096 24.0096,18.2864 25.6512,18.2864 C27.3216,18.2864 28.8768,19.4096 28.8768,21.8288 C28.8768,24.248 27.3216,25.4 25.6512,25.4 Z M38.7744,29.4032 C40.6752,29.4032 42.0576,28.5968 42.8064,27.3872 C42.8064,28.3664 42.9216,28.8848 42.9504,29 L46.896,29 L46.8803062,28.9094375 C46.83345,28.6157 46.7232,27.7652 46.7232,26.7824 L46.7232,19.784 C46.7232,16.8464 45.024,14.2544 40.3872,14.2544 C36.1824,14.2544 34.2816,16.9616 34.1088,19.0064 L37.9104,19.784 C37.9968,18.7184 38.832,17.6816 40.3584,17.6816 C41.7408,17.6816 42.4608,18.4016 42.4608,19.2368 C42.4608,19.7264 42.2016,20.1008 41.424,20.216 L38.0544,20.7344 C35.6928,21.08 33.8208,22.52 33.8208,25.0544 C33.8208,27.3296 35.6352,29.4032 38.7744,29.4032 Z M39.84,26.2352 C38.6304,26.2352 38.1408,25.5152 38.1408,24.7664 C38.1408,23.7584 38.832,23.3264 39.7536,23.1824 L42.4608,22.7504 L42.4608,23.384 C42.4608,25.6016 41.136,26.2352 39.84,26.2352 Z M54.576,29.2592 C55.9584,29.2592 56.6784,28.9424 56.8512,28.856 L56.8512,25.2272 C56.592,25.2848 56.16,25.3712 55.6992,25.3712 C54.7488,25.3712 54.1152,25.0544 54.1152,23.8736 L54.1152,18.5168 L56.9088,18.5168 L56.9088,14.6864 L54.1152,14.6864 L54.1152,10.5104 L50.1984,10.5104 L50.1984,12.3536 C50.1984,13.6784 49.4784,14.6864 47.9808,14.6864 L47.2608,14.6864 L47.2608,18.5168 L49.7952,18.5168 L49.7952,24.6512 C49.7952,27.5024 51.6096,29.2592 54.576,29.2592 Z" id="ffloat"></path>
            </g>
        </g>
    </g>
</svg>